<svg width="700" height="480" viewBox="0 0 700 480" fill="none" xmlns="http://www.w3.org/2000/svg">
<g clip-path="url(#clip0_1_89)">
<path d="M106.999 111.623C128.998 111.623 146.831 94.5177 146.831 73.4167C146.831 52.3158 128.998 35.2101 106.999 35.2101C85.0008 35.2101 67.1675 52.3158 67.1675 73.4167C67.1675 94.5177 85.0008 111.623 106.999 111.623Z" fill="#F2E24D"/>
<path d="M557.195 390.995C543.309 390.994 529.874 386.27 519.278 377.661C508.681 369.053 501.611 357.12 499.324 343.983L499.276 343.705L499.463 343.49C502.577 339.908 505.194 335.954 507.248 331.727C504.978 334.102 502.406 336.195 499.593 337.956L498.654 338.556L498.6 337.476C498.553 336.544 498.529 335.618 498.529 334.724C498.524 329.469 499.28 324.24 500.775 319.185C507.586 296.222 508.751 271.564 504.237 245.895C503.466 241.494 503.078 237.038 503.079 232.575C503.086 213.715 510.092 195.472 522.842 181.114C535.593 166.756 553.256 157.221 572.668 154.216C592.08 151.21 611.973 154.931 628.786 164.712C645.599 174.492 658.233 189.694 664.426 207.595L664.614 208.141L664.059 208.356C659.888 210.05 655.465 211.103 650.952 211.476C655.721 212.528 660.613 212.979 665.503 212.816L666.02 212.799L666.146 213.28C667.785 219.591 668.614 226.071 668.613 232.575L668.61 233.28C668.594 238.26 669.674 243.189 671.777 247.743C673.88 252.297 676.961 256.374 680.817 259.71C687.084 265.179 692.041 271.886 695.348 279.369C698.655 286.851 700.232 294.932 699.972 303.056C699.712 311.179 697.621 319.152 693.841 326.426C690.062 333.7 684.685 340.102 678.08 345.192L677.774 345.429L677.415 345.272C669.861 341.985 664.357 338.403 660.332 334.127C663.015 339.614 666.628 344.636 671.023 348.99L671.591 349.551L670.886 349.946C661.916 354.963 651.718 357.604 641.335 357.6L641.039 357.6C640.934 357.599 640.829 357.599 640.724 357.599C624.841 357.599 609.786 363.49 599.375 373.79C593.892 379.207 587.337 383.519 580.094 386.474C572.851 389.428 565.066 390.966 557.195 390.995Z" fill="#F2F2F2"/>
<path d="M536.434 479.659C536.179 479.659 535.933 479.571 535.74 479.411C535.548 479.25 535.423 479.029 535.387 478.787C535.342 478.484 530.936 448.003 534.893 407.492C538.547 370.08 550.283 316.192 585.44 271.936C585.524 271.83 585.63 271.74 585.75 271.673C585.87 271.606 586.003 271.563 586.141 271.545C586.278 271.527 586.419 271.535 586.553 271.569C586.687 271.603 586.814 271.663 586.924 271.743C587.035 271.824 587.128 271.925 587.198 272.04C587.268 272.156 587.313 272.283 587.332 272.415C587.35 272.547 587.342 272.682 587.306 272.811C587.271 272.94 587.209 273.061 587.125 273.167C552.271 317.041 540.63 370.533 537.001 407.681C533.067 447.956 537.439 478.2 537.483 478.501C537.504 478.645 537.493 478.792 537.45 478.931C537.407 479.071 537.333 479.2 537.234 479.31C537.134 479.419 537.011 479.508 536.873 479.568C536.735 479.628 536.585 479.659 536.434 479.659Z" fill="#3F3D56"/>
<path d="M554.008 330.455C553.785 330.455 553.567 330.388 553.386 330.262C553.205 330.136 553.07 329.958 553.001 329.754C552.931 329.55 552.931 329.33 553 329.126C553.07 328.922 553.204 328.744 553.385 328.618C563.403 322.114 574.225 316.83 585.602 312.887C603.376 306.645 630.405 300.987 658.23 309.481C658.363 309.522 658.486 309.587 658.592 309.673C658.698 309.759 658.786 309.864 658.85 309.983C658.914 310.101 658.952 310.23 658.964 310.363C658.976 310.496 658.96 310.63 658.918 310.757C658.876 310.884 658.808 311.002 658.718 311.104C658.629 311.206 658.519 311.29 658.396 311.351C658.272 311.412 658.137 311.45 657.999 311.461C657.86 311.472 657.721 311.457 657.588 311.417C630.333 303.097 603.794 308.662 586.33 314.795C575.136 318.67 564.487 323.865 554.63 330.261C554.449 330.387 554.232 330.455 554.008 330.455Z" fill="#3F3D56"/>
<path d="M123.837 404.235C113.959 404.218 98.4084 404.982 89.9377 409.272C83.4284 412.57 77.5005 416.829 72.3711 421.894C70.394 423.853 68.5215 425.908 66.7606 428.049C61.8893 412.064 61.3223 395.155 65.1126 378.902C65.3792 377.808 65.2916 376.662 64.8616 375.617C64.4316 374.572 63.6796 373.678 62.7059 373.053C61.7323 372.428 60.5832 372.103 59.4121 372.121C58.2409 372.139 57.1033 372.499 56.1509 373.153C42.3899 382.779 33.5922 399.092 31.4526 415.595C28.7264 436.621 35.1456 457.81 44.0673 477.201L44.0645 477.21C44.048 477.297 44.023 477.393 43.9984 477.488C43.9654 477.63 43.9242 477.773 43.8912 477.915C43.8331 478.161 43.7675 478.414 43.7094 478.659L45.154 478.596C45.2367 478.636 45.3193 478.667 45.4015 478.707H81.5835C82.0629 478.206 82.5096 477.677 82.9209 477.123C86.9246 471.858 88.5837 464.723 90.6064 458.286C92.0712 453.625 93.9037 449.077 96.0878 444.682C101.587 433.643 109.176 423.68 118.467 415.298C118.764 415.029 119.07 414.759 119.375 414.498C120.931 413.125 123.344 411.289 125.701 409.566C126.216 409.19 126.595 408.669 126.786 408.076C126.976 407.483 126.968 406.847 126.762 406.259C126.556 405.671 126.163 405.159 125.639 404.796C125.114 404.433 124.484 404.237 123.837 404.235Z" fill="#F2F2F2"/>
<path d="M368.131 77.001C368.982 79.2837 368.864 81.7958 367.802 83.9956C366.739 86.1955 364.819 87.9068 362.453 88.7606C361.93 88.9481 361.39 89.0908 360.841 89.187L355.373 121.302L342.546 109.942L349.705 81.1866C349.44 78.7636 350.18 76.3378 351.765 74.4338C353.349 72.5298 355.652 71.3005 358.174 71.0117C360.295 70.7784 362.437 71.2442 364.246 72.3325C366.056 73.4209 367.426 75.0673 368.131 77.001Z" fill="#9E616A"/>
<path d="M273.47 149.769C273.47 149.769 283.425 137.152 319.55 137.498L340.054 130.352L344.74 89.1489L361.142 92.8946L358.799 143.837L323.653 163.315L277.573 172.305L273.47 149.769Z" fill="#7FB35B"/>
<path d="M217.96 460.386L227.424 464.254L247.482 431.083L233.515 425.374L217.96 460.386Z" fill="#9E616A"/>
<path d="M296.162 468.976L306.448 468.975L311.341 430.917L296.159 430.918L296.162 468.976Z" fill="#9E616A"/>
<path d="M295.799 479.269L327.432 479.268V478.884C327.431 475.752 326.134 472.748 323.825 470.533C321.516 468.319 318.385 467.074 315.119 467.074L309.341 462.87L298.56 467.075L295.799 467.075L295.799 479.269Z" fill="#2F2E41"/>
<path d="M212.206 466.975L241.306 478.87L241.463 478.517C242.743 475.636 242.778 472.385 241.559 469.479C240.34 466.573 237.968 464.251 234.964 463.023L231.366 456.982L219.73 456.796L217.19 455.757L212.206 466.975Z" fill="#2F2E41"/>
<path d="M306.252 243.734L321.885 335.043L317.631 348.65L323.213 358.287L315.015 442.919L318.343 449.946L309.044 455.447H290.124L289.119 378.829L284.446 367.58V361.381L274.931 314.661L273.179 368.102L270.412 379.369L272.736 387.391L269.699 393.011L243.667 446.628H222.45L224.091 434.503C220.29 432.657 229.798 427.262 230.712 423.27L227.588 416.527L230.712 403.792L233.576 378.906L230.555 326.377L231.977 255.64L256.796 237.435L306.252 243.734Z" fill="#2F2E41"/>
<path d="M268.18 123.485C280.022 123.485 289.621 114.277 289.621 102.919C289.621 91.5605 280.022 82.3528 268.18 82.3528C256.339 82.3528 246.739 91.5605 246.739 102.919C246.739 114.277 256.339 123.485 268.18 123.485Z" fill="#9E616A"/>
<path d="M230.925 281.609C231.525 280.576 231.883 279.429 231.972 278.249C232.06 277.069 231.878 275.884 231.438 274.779C230.998 273.674 230.311 272.674 229.424 271.852C228.538 271.029 227.475 270.402 226.309 270.016L226.258 241.256L213.265 249.505L215.305 275.551C214.759 277.473 214.967 279.52 215.889 281.305C216.811 283.09 218.384 284.488 220.31 285.235C222.235 285.982 224.379 286.025 226.335 285.357C228.292 284.689 229.925 283.355 230.925 281.609Z" fill="#9E616A"/>
<path d="M229.724 154.355L223.919 148.988L219.655 151.94C219.655 151.94 215.46 156.769 212.103 171.256C208.747 185.743 212.103 265.42 212.103 265.42L230.563 263.006L228.046 221.155L235.597 185.743L229.724 154.355Z" fill="#7FB35B"/>
<path d="M221.153 150.297L240.709 141.337L253.986 129.524L278.198 129.351L286.008 139.089L306.627 145.808L303.19 214.004L305.533 219.249C305.533 219.249 303.901 220.663 303.155 221.454C302.409 222.245 304.185 228.868 304.185 228.868L305.187 236.073L302.409 237.977L306.021 242.069L306.917 248.519C306.917 248.519 243.877 233.49 231.966 258.387C231.337 259.703 232.886 246.847 232.886 246.847L234.436 237.435L232.899 228.988L230.556 226.74L234.485 222.971L231.966 205.086L221.153 150.297Z" fill="#7FB35B"/>
<path d="M425.276 459.982H413.671L408.148 417.046H425.276V459.982Z" fill="#FFB6B6"/>
<path d="M431.401 479.269H423.079L421.594 471.732L417.789 479.269H395.716C394.658 479.269 393.627 478.944 392.775 478.343C391.923 477.742 391.293 476.895 390.978 475.926C390.664 474.957 390.68 473.917 391.025 472.957C391.37 471.998 392.026 471.169 392.896 470.593L410.523 458.916V451.296L429.064 452.358L431.401 479.269Z" fill="#2F2E41"/>
<path d="M538.14 437.896L528.158 443.574L500.575 409.346L515.307 400.966L538.14 437.896Z" fill="#FFB6B6"/>
<path d="M553.665 451.488L546.507 455.56L541.221 449.804L541.956 458.148L522.971 468.948C522.061 469.466 521.002 469.691 519.949 469.591C518.896 469.491 517.904 469.07 517.118 468.391C516.332 467.712 515.793 466.809 515.58 465.815C515.366 464.821 515.49 463.787 515.932 462.865L524.884 444.197L520.832 437.644L537.343 429.485L553.665 451.488Z" fill="#2F2E41"/>
<path d="M420.096 185.452L414.458 219.937L468.033 220.613L460.983 187.481L420.096 185.452Z" fill="#FFB6B6"/>
<path d="M414.251 219.501L398.949 255.098L397.834 350.293L410.892 441.185H425.343L431.264 351.775L445.827 290.597L460.19 354.583L504.849 417.212H526.794L486.448 348.197L481.779 273.017C481.779 273.017 484.689 241.123 469.795 222.303L466.169 212.257L414.251 219.501Z" fill="#2F2E41"/>
<path d="M489.205 245.491C487.713 245.101 486.329 244.402 485.149 243.443C483.969 242.484 483.023 241.289 482.377 239.942C481.731 238.595 481.401 237.128 481.41 235.645C481.419 234.162 481.767 232.699 482.429 231.358L459.637 160.084L476.401 156.896L497.247 226.76C499.52 227.977 501.249 229.951 502.107 232.308C502.964 234.666 502.89 237.243 501.899 239.552C500.908 241.86 499.068 243.74 496.728 244.835C494.389 245.929 491.712 246.163 489.205 245.491Z" fill="#FFB6B6"/>
<path d="M462.167 210.49L422.112 192.576C421.056 192.554 420.037 192.201 419.211 191.571C418.384 190.941 417.796 190.068 417.535 189.087C415.555 181.568 411.2 173.21 413.51 153.694C413.966 149.913 415.208 146.259 417.162 142.946C419.117 139.634 421.744 136.731 424.888 134.41C428.033 132.089 431.63 130.396 435.469 129.432C439.307 128.468 443.308 128.252 447.235 128.797C451.378 129.366 455.348 130.768 458.886 132.912C462.424 135.057 465.449 137.894 467.763 141.239C470.077 144.583 471.627 148.359 472.313 152.319C472.998 156.279 472.803 160.333 471.74 164.215C467.092 181.149 467.59 199.256 467.06 206.216C466.981 207.222 466.562 208.176 465.865 208.932C465.168 209.688 464.232 210.205 463.201 210.403C462.894 210.461 462.582 210.491 462.269 210.491C462.235 210.491 462.201 210.491 462.167 210.49Z" fill="#7FB35B"/>
<path d="M375.924 90.7846C375.702 91.2616 375.441 91.721 375.143 92.1585L394.296 135.235L406.069 136.621L406.211 153.936L385.122 153.426C383.418 153.385 381.774 152.815 380.437 151.801C379.1 150.788 378.141 149.386 377.706 147.805L363.51 96.2957C361.499 95.7203 359.718 94.5713 358.404 93.0015C357.091 91.4317 356.307 89.5155 356.156 87.5078C356.006 85.5 356.496 83.4959 357.562 81.762C358.628 80.0281 360.219 78.6465 362.123 77.8011C364.028 76.9557 366.155 76.6865 368.223 77.0292C370.291 77.372 372.201 78.3106 373.7 79.72C375.198 81.1295 376.213 82.9431 376.611 84.9196C377.008 86.8961 376.769 88.9418 375.924 90.7846Z" fill="#FFB6B6"/>
<path d="M396.225 133.7C396.702 133.295 397.264 132.994 397.873 132.816C398.482 132.638 399.124 132.589 399.755 132.671L421.788 135.532C425.045 135.491 428.186 136.691 430.522 138.869C432.858 141.046 434.199 144.023 434.25 147.147C434.301 150.271 433.059 153.287 430.795 155.534C428.531 157.78 425.431 159.074 422.174 159.132L400.152 162.537C399.523 162.634 398.88 162.6 398.267 162.437C397.653 162.275 397.083 161.987 396.596 161.594C396.109 161.201 395.716 160.712 395.443 160.16C395.171 159.608 395.025 159.007 395.017 158.396L394.732 136.936C394.724 136.325 394.853 135.72 395.11 135.162C395.368 134.603 395.748 134.105 396.225 133.7Z" fill="#7FB35B"/>
<path d="M458.616 178.138C458.052 177.854 457.559 177.456 457.171 176.973C456.782 176.489 456.507 175.931 456.364 175.336L451.359 154.555C450.168 151.648 450.227 148.406 451.524 145.54C452.821 142.674 455.25 140.419 458.278 139.268C461.306 138.117 464.686 138.165 467.677 139.401C470.668 140.637 473.027 142.96 474.235 145.861L485.346 164.414C485.663 164.944 485.858 165.532 485.916 166.14C485.974 166.749 485.896 167.362 485.685 167.938C485.474 168.514 485.136 169.04 484.694 169.479C484.252 169.919 483.717 170.262 483.125 170.485L462.3 178.333C461.707 178.557 461.071 178.655 460.435 178.621C459.8 178.588 459.179 178.423 458.616 178.138Z" fill="#7FB35B"/>
<path d="M457.728 121.469C468.705 115.713 472.74 102.511 466.739 91.9809C460.738 81.4513 446.974 77.5815 435.997 83.3375C425.019 89.0935 420.985 102.296 426.986 112.825C432.987 123.355 446.75 127.225 457.728 121.469Z" fill="#FFB6B6"/>
<path d="M431.279 93.6684C426.419 93.6422 421.559 93.6159 416.699 93.5896C416.353 90.4124 417.827 87.2514 419.975 84.8104C422.123 82.3692 424.905 80.5311 427.651 78.7236C430.439 76.8885 433.327 75.0118 436.641 74.3704C439.419 73.8329 442.29 74.2059 445.096 74.5802C448.818 75.0766 452.54 75.573 456.261 76.0694C460.347 76.6143 464.621 77.2306 467.939 79.5807C472.426 82.7588 471.279 90.0946 475.585 93.4959C488.588 103.768 483.323 112.74 483.566 122.103C467.852 123.684 452.138 125.265 436.424 126.846C434.719 127.128 432.972 127.079 431.287 126.703C429.636 126.219 428.123 124.909 428.002 123.257C427.866 121.413 429.391 119.904 430.63 118.487C433.584 114.976 435.358 110.687 435.715 106.187C436.073 101.687 434.998 97.1898 432.633 93.289L431.279 93.6684Z" fill="#2F2E41"/>
<path d="M262.695 122.478C262.604 122.285 262.512 122.09 262.421 121.896C262.456 121.897 262.491 121.902 262.526 121.902L262.695 122.478Z" fill="#2F2E41"/>
<path d="M246.143 83.288C247.161 82.3667 248.484 81.818 249.881 81.7377C251.268 81.7805 252.674 82.9816 252.387 84.2834C254.933 79.9583 258.987 76.6318 263.836 74.8878C268.684 73.1438 274.019 73.0938 278.902 74.7464C282.348 75.9126 285.727 78.2455 286.519 81.6673C286.596 82.5657 286.875 83.4373 287.338 84.2221C287.738 84.6417 288.258 84.9397 288.833 85.0794C289.408 85.2191 290.013 85.1945 290.574 85.0085L290.608 84.9989C290.799 84.936 291.007 84.9299 291.202 84.9811C291.398 85.0324 291.573 85.1388 291.705 85.2866C291.836 85.4343 291.919 85.6166 291.942 85.8098C291.964 86.0031 291.926 86.1984 291.832 86.3706L290.857 88.1148C292.086 88.3776 293.363 88.3515 294.579 88.0388C294.781 87.988 294.995 87.9984 295.19 88.0686C295.386 88.1387 295.554 88.2653 295.672 88.4308C295.79 88.5962 295.851 88.7926 295.848 88.993C295.845 89.1933 295.777 89.3878 295.654 89.5497C294.034 91.6761 291.918 93.4104 289.476 94.6145C287.034 95.8186 284.332 96.4593 281.586 96.4856C277.691 96.4628 273.755 95.1749 269.964 96.0343C268.497 96.3667 267.126 97.0099 265.952 97.9166C264.779 98.8234 263.831 99.9708 263.18 101.274C262.529 102.578 262.19 104.005 262.189 105.451C262.188 106.897 262.524 108.324 263.173 109.629C262.008 108.407 259.757 108.696 258.565 109.894C258.017 110.536 257.611 111.278 257.374 112.076C257.136 112.874 257.072 113.71 257.185 114.533C257.503 117.052 258.283 119.497 259.489 121.756C254.882 121.62 250.43 120.131 246.733 117.491C243.037 114.85 240.274 111.185 238.819 106.99C237.364 102.795 237.286 98.2729 238.595 94.0342C239.905 89.7955 242.54 86.0446 246.143 83.288Z" fill="#2F2E41"/>
<path d="M672.141 480H1.01808C0.771905 479.999 0.536067 479.905 0.36225 479.738C0.188434 479.571 0.0908203 479.344 0.0908203 479.108C0.0908203 478.872 0.188434 478.645 0.36225 478.478C0.536067 478.311 0.771905 478.217 1.01808 478.216H672.141C672.263 478.216 672.385 478.238 672.498 478.283C672.611 478.328 672.714 478.393 672.8 478.476C672.887 478.559 672.956 478.658 673.003 478.766C673.05 478.874 673.074 478.991 673.074 479.108C673.074 479.225 673.05 479.342 673.003 479.45C672.956 479.558 672.887 479.657 672.8 479.74C672.714 479.823 672.611 479.888 672.498 479.933C672.385 479.978 672.263 480 672.141 480Z" fill="#CCCCCC"/>
<path d="M183.098 51.3223C163.793 48.8194 141.754 58.8278 136.751 76.886C135.49 73.6752 133.198 70.9321 130.205 69.0529C127.212 67.1736 123.674 66.2556 120.102 66.4315C116.53 66.6073 113.108 67.8679 110.332 70.031C107.556 72.1942 105.568 75.148 104.656 78.4657L106.866 79.984C148.235 88.5649 191.058 88.3792 232.344 79.4398C218.916 65.9034 202.402 53.8251 183.098 51.3223Z" fill="#F0F0F0"/>
<path d="M112.025 86.5324C92.7208 84.0295 70.6818 94.0379 65.6785 112.096C64.4176 108.885 62.1252 106.142 59.1325 104.263C56.1398 102.384 52.6018 101.466 49.0296 101.642C45.4573 101.817 42.0358 103.078 39.2594 105.241C36.483 107.404 34.4954 110.358 33.5837 113.676L35.7938 115.194C77.1623 123.775 119.985 123.589 161.271 114.65C147.843 101.113 131.329 89.0352 112.025 86.5324Z" fill="#F0F0F0"/>
</g>
<defs>
<clipPath id="clip0_1_89">
<rect width="700" height="480" fill="white"/>
</clipPath>
</defs>
</svg>
