<svg width="20" height="21" viewBox="0 0 20 21" fill="none" xmlns="http://www.w3.org/2000/svg">
<path d="M15.8333 3H4.16667C3.25 3 2.5 3.75 2.5 4.66667V16.3333C2.5 17.25 3.25 18 4.16667 18H15.8333C16.75 18 17.5 17.25 17.5 16.3333V4.66667C17.5 3.75 16.75 3 15.8333 3ZM5.83333 6.33333H7.5V8H5.83333V6.33333ZM5.83333 9.66667H7.5V11.3333H5.83333V9.66667ZM5.83333 13H7.5V14.6667H5.83333V13ZM14.1667 14.6667H9.16667V13H14.1667V14.6667ZM14.1667 11.3333H9.16667V9.66667H14.1667V11.3333ZM14.1667 8H9.16667V6.33333H14.1667V8Z" fill="#F8F8F8"/>
</svg>
