<svg width="20" height="21" viewBox="0 0 20 21" fill="none" xmlns="http://www.w3.org/2000/svg">
<path d="M9.95841 15.5C10.2501 15.5 10.4967 15.3991 10.6984 15.1975C10.9001 14.9958 11.0006 14.7494 11.0001 14.4583C11.0001 14.1666 10.8995 13.92 10.6984 13.7183C10.4973 13.5166 10.2506 13.4161 9.95841 13.4166C9.66675 13.4166 9.42036 13.5175 9.21925 13.7191C9.01814 13.9208 8.9173 14.1672 8.91675 14.4583C8.91675 14.75 9.01758 14.9966 9.21925 15.1983C9.42091 15.4 9.6673 15.5005 9.95841 15.5ZM9.20841 12.2916H10.7501C10.7501 11.8333 10.8023 11.4722 10.9067 11.2083C11.0112 10.9444 11.3062 10.5833 11.7917 10.125C12.1529 9.76385 12.4376 9.41996 12.6459 9.09329C12.8542 8.76663 12.9584 8.3744 12.9584 7.91663C12.9584 7.13885 12.6737 6.54163 12.1042 6.12496C11.5348 5.70829 10.8612 5.49996 10.0834 5.49996C9.29175 5.49996 8.64925 5.70829 8.15591 6.12496C7.66258 6.54163 7.31897 7.04163 7.12508 7.62496L8.50008 8.16663C8.56953 7.91663 8.72591 7.64579 8.96925 7.35413C9.21258 7.06246 9.58397 6.91663 10.0834 6.91663C10.5279 6.91663 10.8612 7.03829 11.0834 7.28163C11.3056 7.52496 11.4167 7.79218 11.4167 8.08329C11.4167 8.36107 11.3334 8.62163 11.1667 8.86496C11.0001 9.10829 10.7917 9.33385 10.5417 9.54163C9.93064 10.0833 9.55564 10.493 9.41675 10.7708C9.27786 11.0486 9.20841 11.5555 9.20841 12.2916ZM10.0001 18.8333C8.8473 18.8333 7.76397 18.6144 6.75008 18.1766C5.73619 17.7388 4.85425 17.1452 4.10425 16.3958C3.35425 15.6458 2.76064 14.7638 2.32341 13.75C1.88619 12.7361 1.6673 11.6527 1.66675 10.5C1.66675 9.34718 1.88564 8.26385 2.32341 7.24996C2.76119 6.23607 3.3548 5.35413 4.10425 4.60413C4.85425 3.85413 5.73619 3.26051 6.75008 2.82329C7.76397 2.38607 8.8473 2.16718 10.0001 2.16663C11.1529 2.16663 12.2362 2.38551 13.2501 2.82329C14.264 3.26107 15.1459 3.85468 15.8959 4.60413C16.6459 5.35413 17.2398 6.23607 17.6776 7.24996C18.1154 8.26385 18.334 9.34718 18.3334 10.5C18.3334 11.6527 18.1145 12.7361 17.6767 13.75C17.239 14.7638 16.6454 15.6458 15.8959 16.3958C15.1459 17.1458 14.264 17.7397 13.2501 18.1775C12.2362 18.6152 11.1529 18.8338 10.0001 18.8333Z" fill="#F8F8F8"/>
</svg>
