<svg width="20" height="21" viewBox="0 0 20 21" fill="none" xmlns="http://www.w3.org/2000/svg">
<path d="M17.5 9.52736V16.75C17.5 17.0815 17.3683 17.3995 17.1339 17.6339C16.8995 17.8683 16.5815 18 16.25 18H13.125C12.7935 18 12.4755 17.8683 12.2411 17.6339C12.0067 17.3995 11.875 17.0815 11.875 16.75V13.625C11.875 13.4593 11.8092 13.3003 11.6919 13.1831C11.5747 13.0659 11.4158 13 11.25 13H8.75C8.58424 13 8.42527 13.0659 8.30806 13.1831C8.19085 13.3003 8.125 13.4593 8.125 13.625V16.75C8.125 17.0815 7.9933 17.3995 7.75888 17.6339C7.52446 17.8683 7.20652 18 6.875 18H3.75C3.41848 18 3.10054 17.8683 2.86612 17.6339C2.6317 17.3995 2.5 17.0815 2.5 16.75V9.52736C2.49997 9.35436 2.53586 9.18323 2.60538 9.02482C2.67491 8.8664 2.77656 8.72414 2.90391 8.60705L9.15391 2.71017L9.1625 2.70158C9.39261 2.49231 9.69248 2.37634 10.0035 2.37634C10.3146 2.37634 10.6144 2.49231 10.8445 2.70158C10.8472 2.70463 10.8501 2.7075 10.8531 2.71017L17.1031 8.60705C17.2292 8.72476 17.3295 8.8673 17.3978 9.02568C17.4661 9.18407 17.5009 9.35488 17.5 9.52736Z" fill="#F8F8F8"/>
</svg>
