<svg width="20" height="21" viewBox="0 0 20 21" fill="none" xmlns="http://www.w3.org/2000/svg">
<path d="M9.99992 7.99996L7.08325 5.08329L9.99992 2.16663L12.9166 5.08329L9.99992 7.99996ZM0.833252 17.1666V13.8333C0.833252 13.3611 0.996585 12.9652 1.32325 12.6458C1.64992 12.3263 2.04214 12.1666 2.49992 12.1666H5.22909C5.50686 12.1666 5.77075 12.2361 6.02075 12.375C6.27075 12.5138 6.47214 12.7013 6.62492 12.9375C7.0277 13.4791 7.52436 13.9027 8.11492 14.2083C8.70547 14.5138 9.33381 14.6666 9.99992 14.6666C10.6805 14.6666 11.316 14.5138 11.9066 14.2083C12.4971 13.9027 12.9866 13.4791 13.3749 12.9375C13.5555 12.7013 13.7674 12.5138 14.0108 12.375C14.2541 12.2361 14.5074 12.1666 14.7708 12.1666H17.4999C17.9721 12.1666 18.368 12.3263 18.6874 12.6458C19.0069 12.9652 19.1666 13.3611 19.1666 13.8333V17.1666H13.3333V15.2708C12.8471 15.618 12.3227 15.8819 11.7599 16.0625C11.1971 16.243 10.6105 16.3333 9.99992 16.3333C9.4027 16.3333 8.81936 16.2394 8.24992 16.0516C7.68047 15.8638 7.1527 15.5966 6.66658 15.25V17.1666H0.833252ZM3.33325 11.3333C2.63881 11.3333 2.04853 11.0902 1.56242 10.6041C1.07631 10.118 0.833252 9.52774 0.833252 8.83329C0.833252 8.12496 1.07631 7.53107 1.56242 7.05163C2.04853 6.57218 2.63881 6.33274 3.33325 6.33329C4.04159 6.33329 4.63547 6.57301 5.11492 7.05246C5.59436 7.5319 5.83381 8.12551 5.83325 8.83329C5.83325 9.52774 5.59353 10.118 5.11409 10.6041C4.63464 11.0902 4.04103 11.3333 3.33325 11.3333ZM16.6666 11.3333C15.9721 11.3333 15.3819 11.0902 14.8958 10.6041C14.4096 10.118 14.1666 9.52774 14.1666 8.83329C14.1666 8.12496 14.4096 7.53107 14.8958 7.05163C15.3819 6.57218 15.9721 6.33274 16.6666 6.33329C17.3749 6.33329 17.9688 6.57301 18.4483 7.05246C18.9277 7.5319 19.1671 8.12551 19.1666 8.83329C19.1666 9.52774 18.9269 10.118 18.4474 10.6041C17.968 11.0902 17.3744 11.3333 16.6666 11.3333Z" fill="#F8F8F8"/>
</svg>
