<svg width="20" height="21" viewBox="0 0 20 21" fill="none" xmlns="http://www.w3.org/2000/svg">
<path d="M13.7966 11.2549L13.4174 11.6324C13.4174 11.6324 12.5149 12.5291 10.0524 10.0808C7.5899 7.63244 8.4924 6.73578 8.4924 6.73578L8.73073 6.49744C9.3199 5.91244 9.37573 4.97244 8.86157 4.28578L7.81157 2.88328C7.1749 2.03328 5.94573 1.92078 5.21657 2.64578L3.90823 3.94578C3.5474 4.30578 3.30573 4.77078 3.3349 5.28744C3.4099 6.60994 4.00823 9.45411 7.3449 12.7724C10.8841 16.2908 14.2049 16.4308 15.5624 16.3041C15.9924 16.2641 16.3657 16.0458 16.6666 15.7458L17.8499 14.5691C18.6499 13.7749 18.4249 12.4124 17.4016 11.8566L15.8099 10.9908C15.1382 10.6258 14.3216 10.7333 13.7966 11.2549Z" fill="#F8F8F8"/>
</svg>
