<svg width="800" height="450" viewBox="0 0 800 450" fill="none" xmlns="http://www.w3.org/2000/svg">
<g clip-path="url(#clip0_2_149)">
<path d="M50.6725 375.826L48.1771 388.873C47.9891 389.87 47.7926 390.886 47.5789 391.892C45.4933 391.441 43.3308 391.567 41.3063 392.257C42.9125 394.649 44.3519 397.158 45.6134 399.765C44.041 404.814 41.7336 409.481 37.8709 412.856C35.291 415.06 32.2097 416.534 28.9241 417.136C25.6385 417.738 22.2595 417.448 19.1129 416.293L19.2239 415.777C15.0707 407.379 17.3268 396.79 22.4884 389.033C25.1211 385.206 28.2404 381.77 31.7607 378.818C35.2473 375.79 39.016 373.074 42.7506 370.394C43.5893 369.792 44.581 369.466 45.5989 369.455C46.6168 369.444 47.6147 369.75 48.4651 370.333C49.3154 370.916 49.9797 371.75 50.3729 372.729C50.7661 373.707 50.8704 374.785 50.6725 375.826Z" fill="#E4E4E4"/>
<path d="M20.0015 447.686C18.9512 439.713 17.871 431.638 18.6077 423.579C19.2623 416.422 21.3569 409.432 25.6229 403.701C27.8872 400.664 30.6423 398.062 33.7645 396.012C34.5789 395.478 35.3275 396.822 34.5174 397.354C29.1154 400.912 24.9371 406.166 22.5849 412.358C19.987 419.244 19.5699 426.75 20.0211 434.065C20.292 438.488 20.8655 442.881 21.444 447.272C21.4906 447.47 21.4626 447.68 21.3657 447.858C21.2688 448.036 21.1103 448.168 20.9227 448.228C20.7319 448.282 20.5285 448.255 20.3567 448.153C20.1848 448.051 20.0584 447.883 20.0049 447.685L20.0015 447.686Z" fill="#F2F2F2"/>
<path d="M29.015 47.7646C65.6229 47.1013 102.235 47.006 138.851 47.4788C175.461 47.9543 212.059 49.0005 248.645 50.6173C269.175 51.5246 289.697 52.6115 310.21 53.8781C311.858 53.9797 311.852 51.3077 310.21 51.2064C273.66 48.9525 237.084 47.266 200.481 46.147C163.884 45.0309 127.275 44.4855 90.6566 44.5108C70.1083 44.525 49.5611 44.7191 29.015 45.093C27.3671 45.1228 27.3619 47.7946 29.015 47.7646Z" fill="#E6E6E6"/>
<path d="M284.138 31.0124L300.145 29.7708C301.781 29.644 301.794 26.9713 300.145 27.0991L284.138 28.3407C282.502 28.4675 282.489 31.1402 284.138 31.0124Z" fill="#E6E6E6"/>
<path d="M284.138 47.0426L300.145 45.801C301.781 45.6742 301.794 43.0015 300.145 43.1293L284.138 44.3709C282.502 44.4977 282.489 47.1704 284.138 47.0426Z" fill="#E6E6E6"/>
<path d="M282.934 39.7219L305.693 41.8767C307.335 42.0322 307.325 39.3595 305.693 39.205L282.934 37.0502C281.291 36.8947 281.301 39.5674 282.934 39.7219Z" fill="#E6E6E6"/>
<path d="M38.4884 27.4193C37.3753 27.4122 36.2847 27.7466 35.3527 28.3809C34.4206 29.0153 33.6884 29.9215 33.2472 30.9865C32.7536 32.029 32.6013 33.2111 32.8134 34.3523C33.0255 35.4935 33.5905 36.5309 34.4219 37.3058C35.2035 37.9988 36.1409 38.4739 37.1465 38.6868C38.1521 38.8997 39.1931 38.8434 40.1722 38.5232C41.1735 38.1588 42.0418 37.4799 42.6575 36.58C43.2733 35.68 43.6062 34.6033 43.6105 33.4981C43.6552 32.2718 43.3364 31.061 42.6975 30.0302C42.0586 28.9994 41.1306 28.1987 40.0396 27.737C39.7118 27.6442 39.3621 27.6902 39.0667 27.865C38.7713 28.0397 38.5542 28.3291 38.4627 28.67C38.3819 29.0113 38.4296 29.3718 38.5962 29.6775C38.7627 29.9832 39.0354 30.2107 39.358 30.3133C39.5814 30.4032 39.1539 30.1988 39.3625 30.3172C39.4483 30.3659 39.5357 30.4099 39.6199 30.4619C39.6915 30.5061 39.7601 30.5545 39.8297 30.6019C40.069 30.7646 39.7129 30.4824 39.8658 30.6287C39.9985 30.7556 40.1299 30.8794 40.2505 31.0194C40.296 31.0723 40.4746 31.2195 40.3359 31.1166C40.2297 31.0379 40.2949 31.0564 40.3358 31.1196C40.3669 31.1676 40.3997 31.2143 40.4304 31.2625C40.5303 31.4201 40.6212 31.5838 40.7024 31.7526C40.7213 31.7917 40.7385 31.8317 40.7577 31.8706C40.7936 31.9434 40.8456 31.9625 40.7612 31.8713C40.6806 31.7841 40.7319 31.79 40.7608 31.8739C40.7797 31.9291 40.8004 31.9835 40.8189 32.0389C40.879 32.2191 40.9294 32.4026 40.97 32.5886C40.9888 32.6746 41.0039 32.7611 41.0201 32.8476C41.0773 33.1544 41.0117 32.6569 41.0256 32.8848C41.0371 33.0751 41.0506 33.2633 41.0474 33.4543C41.0459 33.5417 41.0423 33.629 41.0365 33.7162C41.0335 33.7597 41.0289 33.8031 41.0261 33.8466C41.0128 34.0562 41.0124 33.77 41.0405 33.7504C40.9819 33.9284 40.9431 34.1127 40.9247 34.2999C40.9017 34.3829 40.8745 34.4642 40.8489 34.5463C40.7597 34.8329 40.9327 34.3901 40.8376 34.586C40.7594 34.7543 40.6719 34.9177 40.5757 35.0755C40.5339 35.1416 40.3765 35.2909 40.5052 35.187C40.645 35.0743 40.432 35.2684 40.3865 35.3184C40.3281 35.3826 40.2675 35.4445 40.2047 35.5042C40.1645 35.5451 40.1221 35.5836 40.0776 35.6194C40.0694 35.6151 40.2917 35.4647 40.1719 35.5443C40.0196 35.6455 39.8754 35.7538 39.7149 35.842C39.6962 35.8522 39.491 35.9513 39.4918 35.9548C39.483 35.9187 39.7556 35.8548 39.5685 35.9178C39.5292 35.931 39.4906 35.947 39.4514 35.9608C39.281 36.0205 39.1071 36.0688 38.9307 36.1053C38.8903 36.1137 38.8476 36.1179 38.8079 36.1287C38.6753 36.1644 38.9345 36.1077 38.9423 36.1124C38.8443 36.108 38.7462 36.1171 38.6506 36.1393C38.4687 36.1502 38.2863 36.1501 38.1045 36.1393C38.0624 36.1367 38.0204 36.1324 37.9783 36.1298C37.8807 36.1239 37.809 36.0506 37.939 36.1302C38.0392 36.1916 38.0309 36.1468 37.9421 36.1297C37.9005 36.1217 37.8588 36.1149 37.8172 36.1068C37.6372 36.0717 37.4592 36.0263 37.284 35.9707C37.1897 35.9408 37.0973 35.9059 37.0043 35.8721C36.9638 35.8598 36.9243 35.844 36.8864 35.8248C36.8858 35.8138 37.1261 35.9444 36.9992 35.8732C36.8391 35.7832 36.6735 35.7078 36.5172 35.6096C36.4337 35.5571 36.3536 35.5001 36.2724 35.4439C36.2368 35.4215 36.2028 35.3962 36.171 35.3682C36.1737 35.3569 36.3697 35.5462 36.2668 35.444C36.1367 35.3148 35.9974 35.1991 35.8742 35.0614C35.846 35.0299 35.8193 34.997 35.7912 34.9654L35.764 34.933C35.6945 34.8445 35.6932 34.8449 35.7601 34.9343C35.8281 34.9552 35.825 35.0329 35.7605 34.9319C35.7375 34.896 35.7131 34.8611 35.6902 34.8251C35.5861 34.6705 35.4973 34.5053 35.4252 34.332C35.4315 34.3269 35.5363 34.6534 35.4562 34.407C35.441 34.3605 35.424 34.3147 35.4091 34.268C35.3797 34.1755 35.3538 34.0819 35.3314 33.9873C35.3092 33.8936 35.2978 33.7969 35.2755 33.7036C35.2378 33.5462 35.2975 33.8277 35.2907 33.8207C35.2693 33.7987 35.2784 33.6622 35.2768 33.6296C35.2666 33.42 35.2895 33.2165 35.2931 33.0082C35.2959 32.8468 35.2803 33.134 35.277 33.1255C35.2778 33.0772 35.286 33.0293 35.3014 32.9837C35.3246 32.8738 35.3462 32.764 35.3746 32.6553C35.4071 32.5309 35.4445 32.408 35.4869 32.2866C35.5027 32.2412 35.522 32.1965 35.5367 32.1507C35.5907 31.9829 35.4299 32.3533 35.5186 32.202C35.6405 31.9939 35.7314 31.7687 35.8609 31.5631C35.8915 31.5144 36.0781 31.243 35.9791 31.38C35.8805 31.5165 36.0804 31.2578 36.1183 31.2139C36.2755 31.0315 36.4604 30.8817 36.6232 30.707C36.7196 30.6035 36.5559 30.7579 36.5463 30.7651C36.5967 30.7275 36.6461 30.6886 36.6971 30.6519C36.7861 30.588 36.8773 30.5276 36.9707 30.4706C37.0758 30.4063 37.1947 30.3585 37.2967 30.2905C37.4171 30.2102 37.2046 30.3258 37.2008 30.3282C37.2558 30.2998 37.3133 30.2769 37.3725 30.26C37.4717 30.2233 37.9034 30.0292 37.994 30.0899C37.9899 30.0872 37.6662 30.1171 37.9279 30.0995C37.9897 30.0954 38.0513 30.0891 38.1132 30.0864C38.2385 30.081 38.3633 30.0843 38.4885 30.0911C38.8278 30.0888 39.1525 29.9473 39.3924 29.6973C39.6324 29.4472 39.7681 29.1088 39.7704 28.7552C39.7631 28.4033 39.6257 28.0679 39.3869 27.819C39.148 27.5701 38.8261 27.4269 38.4884 27.4193Z" fill="#E6E6E6"/>
<path d="M56.4347 27.4193C55.3216 27.4122 54.231 27.7466 53.2989 28.3809C52.3669 29.0153 51.6347 29.9215 51.1935 30.9865C50.6999 32.029 50.5475 33.2111 50.7597 34.3523C50.9718 35.4935 51.5368 36.5309 52.3682 37.3058C53.1498 37.9988 54.0872 38.4739 55.0928 38.6868C56.0984 38.8997 57.1394 38.8434 58.1185 38.5232C59.1198 38.1588 59.9881 37.4799 60.6038 36.58C61.2195 35.68 61.5525 34.6033 61.5568 33.4981C61.6015 32.2718 61.2827 31.061 60.6438 30.0302C60.0049 28.9994 59.0768 28.1987 57.9859 27.737C57.6581 27.6442 57.3084 27.6902 57.013 27.865C56.7176 28.0397 56.5005 28.3291 56.409 28.67C56.3282 29.0113 56.3759 29.3718 56.5425 29.6775C56.709 29.9832 56.9817 30.2107 57.3043 30.3133C57.5277 30.4032 57.1002 30.1988 57.3088 30.3172C57.3946 30.3659 57.482 30.4099 57.5662 30.4619C57.6378 30.5061 57.7064 30.5545 57.776 30.6019C58.0153 30.7646 57.6592 30.4824 57.8121 30.6287C57.9448 30.7556 58.0762 30.8794 58.1967 31.0194C58.2423 31.0723 58.4209 31.2195 58.2821 31.1166C58.176 31.0379 58.2412 31.0564 58.2821 31.1196C58.3132 31.1676 58.346 31.2143 58.3767 31.2625C58.4766 31.4201 58.5675 31.5838 58.6487 31.7526C58.6676 31.7917 58.6848 31.8317 58.704 31.8706C58.7398 31.9434 58.7919 31.9625 58.7075 31.8713C58.6269 31.7841 58.6782 31.79 58.707 31.8739C58.726 31.9291 58.7467 31.9835 58.7652 32.0389C58.8253 32.2191 58.8757 32.4026 58.9163 32.5886C58.9351 32.6746 58.9502 32.7611 58.9663 32.8476C59.0236 33.1544 58.958 32.6569 58.9718 32.8848C58.9834 33.0751 58.9969 33.2633 58.9937 33.4543C58.9922 33.5417 58.9886 33.629 58.9827 33.7162C58.9798 33.7597 58.9751 33.8031 58.9724 33.8466C58.9591 34.0562 58.9587 33.77 58.9868 33.7504C58.9282 33.9284 58.8894 34.1127 58.871 34.2999C58.848 34.3829 58.8207 34.4642 58.7952 34.5463C58.706 34.8329 58.8789 34.3901 58.7839 34.586C58.7057 34.7543 58.6182 34.9177 58.522 35.0755C58.4802 35.1416 58.3227 35.2909 58.4515 35.187C58.5913 35.0743 58.3783 35.2684 58.3328 35.3184C58.2744 35.3826 58.2138 35.4445 58.151 35.5042C58.1108 35.5451 58.0683 35.5836 58.0239 35.6194C58.0157 35.6151 58.238 35.4647 58.1182 35.5443C57.9659 35.6455 57.8217 35.7538 57.6612 35.842C57.6425 35.8522 57.4373 35.9513 57.4381 35.9548C57.4293 35.9187 57.7019 35.8548 57.5148 35.9178C57.4754 35.931 57.4369 35.947 57.3977 35.9608C57.2273 36.0205 57.0534 36.0688 56.877 36.1053C56.8366 36.1137 56.7939 36.1179 56.7541 36.1287C56.6216 36.1644 56.8808 36.1077 56.8886 36.1124C56.7906 36.108 56.6925 36.1171 56.5968 36.1393C56.415 36.1502 56.2326 36.1501 56.0508 36.1393C56.0087 36.1367 55.9667 36.1324 55.9246 36.1298C55.8269 36.1239 55.7553 36.0506 55.8852 36.1302C55.9855 36.1916 55.9772 36.1468 55.8883 36.1297C55.8468 36.1217 55.805 36.1149 55.7635 36.1068C55.5835 36.0717 55.4055 36.0263 55.2303 35.9707C55.136 35.9408 55.0436 35.9059 54.9506 35.8721C54.91 35.8598 54.8706 35.844 54.8326 35.8248C54.8321 35.8138 55.0724 35.9444 54.9455 35.8732C54.7854 35.7832 54.6198 35.7078 54.4634 35.6096C54.38 35.5571 54.2999 35.5001 54.2187 35.4439C54.1831 35.4215 54.1491 35.3962 54.1173 35.3682C54.12 35.3569 54.316 35.5462 54.2131 35.444C54.0829 35.3148 53.9437 35.1991 53.8205 35.0614C53.7923 35.0299 53.7656 34.997 53.7375 34.9654L53.7103 34.933C53.6408 34.8445 53.6395 34.8449 53.7064 34.9343C53.7744 34.9552 53.7713 35.0329 53.7068 34.9319C53.6838 34.896 53.6594 34.8611 53.6365 34.8251C53.5324 34.6705 53.4436 34.5053 53.3715 34.332C53.3778 34.3269 53.4826 34.6534 53.4024 34.407C53.3873 34.3605 53.3703 34.3147 53.3554 34.268C53.326 34.1755 53.3001 34.0819 53.2777 33.9873C53.2555 33.8936 53.2441 33.7969 53.2218 33.7036C53.1841 33.5462 53.2438 33.8277 53.237 33.8207C53.2156 33.7987 53.2247 33.6622 53.2231 33.6296C53.2129 33.42 53.2358 33.2165 53.2393 33.0082C53.2421 32.8468 53.2265 33.134 53.2233 33.1255C53.2241 33.0772 53.2323 33.0293 53.2476 32.9837C53.2708 32.8738 53.2924 32.764 53.3208 32.6553C53.3534 32.5309 53.3908 32.408 53.4332 32.2866C53.449 32.2412 53.4683 32.1965 53.483 32.1507C53.537 31.9829 53.3762 32.3533 53.4649 32.202C53.5868 31.9939 53.6777 31.7687 53.8071 31.5631C53.8378 31.5144 54.0244 31.243 53.9254 31.38C53.8268 31.5165 54.0267 31.2578 54.0646 31.2139C54.2218 31.0315 54.4067 30.8817 54.5695 30.707C54.6659 30.6035 54.5022 30.7579 54.4926 30.7651C54.543 30.7275 54.5924 30.6886 54.6434 30.6519C54.7324 30.588 54.8236 30.5276 54.917 30.4706C55.0221 30.4063 55.141 30.3585 55.243 30.2905C55.3634 30.2102 55.1509 30.3258 55.1471 30.3282C55.2021 30.2998 55.2596 30.2769 55.3188 30.26C55.418 30.2233 55.8497 30.0292 55.9403 30.0899C55.9362 30.0872 55.6125 30.1171 55.8742 30.0995C55.936 30.0954 55.9976 30.0891 56.0595 30.0864C56.1848 30.081 56.3096 30.0843 56.4348 30.0911C56.7741 30.0888 57.0988 29.9473 57.3387 29.6973C57.5786 29.4472 57.7144 29.1088 57.7166 28.7552C57.7094 28.4033 57.572 28.0679 57.3332 27.819C57.0943 27.5701 56.7724 27.4269 56.4347 27.4193Z" fill="#E6E6E6"/>
<path d="M74.381 27.4193C73.2678 27.4122 72.1773 27.7466 71.2452 28.3809C70.3132 29.0153 69.5809 29.9215 69.1397 30.9865C68.6462 32.029 68.4938 33.2111 68.706 34.3523C68.9181 35.4935 69.4831 36.5309 70.3145 37.3058C71.0961 37.9988 72.0335 38.4739 73.0391 38.6868C74.0447 38.8997 75.0857 38.8434 76.0648 38.5232C77.0661 38.1588 77.9343 37.4799 78.5501 36.58C79.1658 35.68 79.4988 34.6033 79.5031 33.4981C79.5478 32.2718 79.229 31.061 78.5901 30.0302C77.9512 28.9994 77.0231 28.1987 75.9322 27.737C75.6044 27.6442 75.2547 27.6902 74.9593 27.865C74.6639 28.0397 74.4468 28.3291 74.3553 28.67C74.2744 29.0113 74.3222 29.3718 74.4888 29.6775C74.6553 29.9832 74.928 30.2107 75.2506 30.3133C75.474 30.4032 75.0465 30.1988 75.2551 30.3172C75.3409 30.3659 75.4283 30.4099 75.5125 30.4619C75.5841 30.5061 75.6526 30.5545 75.7223 30.6019C75.9616 30.7646 75.6055 30.4824 75.7584 30.6287C75.8911 30.7556 76.0225 30.8794 76.143 31.0194C76.1886 31.0723 76.3672 31.2195 76.2284 31.1166C76.1222 31.0379 76.1875 31.0564 76.2284 31.1196C76.2594 31.1676 76.2923 31.2143 76.323 31.2625C76.4229 31.4201 76.5137 31.5838 76.595 31.7526C76.6139 31.7917 76.6311 31.8317 76.6502 31.8706C76.6861 31.9434 76.7382 31.9625 76.6538 31.8713C76.5731 31.7841 76.6245 31.79 76.6533 31.8739C76.6723 31.9291 76.693 31.9835 76.7115 32.0389C76.7716 32.2191 76.822 32.4026 76.8626 32.5886C76.8814 32.6746 76.8965 32.7611 76.9126 32.8476C76.9699 33.1544 76.9043 32.6569 76.9181 32.8848C76.9297 33.0751 76.9432 33.2633 76.94 33.4543C76.9385 33.5417 76.9349 33.629 76.929 33.7162C76.9261 33.7597 76.9214 33.8031 76.9187 33.8466C76.9054 34.0562 76.905 33.77 76.9331 33.7504C76.8745 33.9284 76.8357 34.1127 76.8173 34.2999C76.7943 34.3829 76.767 34.4642 76.7415 34.5463C76.6523 34.8329 76.8252 34.3901 76.7302 34.586C76.6519 34.7543 76.5645 34.9177 76.4683 35.0755C76.4265 35.1416 76.269 35.2909 76.3978 35.187C76.5376 35.0743 76.3245 35.2684 76.2791 35.3184C76.2207 35.3826 76.1601 35.4445 76.0973 35.5042C76.0571 35.5451 76.0146 35.5836 75.9702 35.6194C75.962 35.6151 76.1843 35.4647 76.0645 35.5443C75.9122 35.6455 75.768 35.7538 75.6074 35.842C75.5888 35.8522 75.3835 35.9513 75.3844 35.9548C75.3755 35.9187 75.6482 35.8548 75.461 35.9178C75.4217 35.931 75.3832 35.947 75.344 35.9608C75.1736 36.0205 74.9997 36.0688 74.8233 36.1053C74.7829 36.1137 74.7402 36.1179 74.7004 36.1287C74.5679 36.1644 74.8271 36.1077 74.8348 36.1124C74.7369 36.108 74.6388 36.1171 74.5431 36.1393C74.3613 36.1502 74.1789 36.1501 73.997 36.1393C73.955 36.1367 73.913 36.1324 73.8709 36.1298C73.7732 36.1239 73.7016 36.0506 73.8315 36.1302C73.9318 36.1916 73.9235 36.1468 73.8346 36.1297C73.7931 36.1217 73.7513 36.1149 73.7098 36.1068C73.5298 36.0717 73.3518 36.0263 73.1765 35.9707C73.0823 35.9408 72.9899 35.9059 72.8969 35.8721C72.8563 35.8598 72.8169 35.844 72.7789 35.8248C72.7784 35.8138 73.0187 35.9444 72.8918 35.8732C72.7317 35.7832 72.5661 35.7078 72.4097 35.6096C72.3263 35.5571 72.2461 35.5001 72.165 35.4439C72.1293 35.4215 72.0954 35.3962 72.0636 35.3682C72.0663 35.3569 72.2623 35.5462 72.1594 35.444C72.0292 35.3148 71.89 35.1991 71.7667 35.0614C71.7385 35.0299 71.7119 34.997 71.6838 34.9654L71.6566 34.933C71.5871 34.8445 71.5858 34.8449 71.6527 34.9343C71.7206 34.9552 71.7176 35.0329 71.6531 34.9319C71.6301 34.896 71.6057 34.8611 71.5828 34.8251C71.4787 34.6705 71.3899 34.5053 71.3178 34.332C71.3241 34.3269 71.4289 34.6534 71.3487 34.407C71.3336 34.3605 71.3166 34.3147 71.3017 34.268C71.2723 34.1755 71.2463 34.0819 71.2239 33.9873C71.2018 33.8936 71.1904 33.7969 71.1681 33.7036C71.1304 33.5462 71.1901 33.8277 71.1833 33.8207C71.1619 33.7987 71.171 33.6622 71.1694 33.6296C71.1591 33.42 71.1821 33.2165 71.1856 33.0082C71.1884 32.8468 71.1728 33.134 71.1696 33.1255C71.1704 33.0772 71.1786 33.0293 71.1939 32.9837C71.2171 32.8738 71.2387 32.764 71.2671 32.6553C71.2997 32.5309 71.3371 32.408 71.3795 32.2866C71.3953 32.2412 71.4146 32.1965 71.4293 32.1507C71.4833 31.9829 71.3225 32.3533 71.4112 32.202C71.5331 31.9939 71.6239 31.7687 71.7534 31.5631C71.7841 31.5144 71.9707 31.243 71.8717 31.38C71.773 31.5165 71.973 31.2578 72.0108 31.2139C72.1681 31.0315 72.353 30.8817 72.5158 30.707C72.6121 30.6035 72.4485 30.7579 72.4389 30.7651C72.4893 30.7275 72.5387 30.6886 72.5897 30.6519C72.6787 30.588 72.7699 30.5276 72.8632 30.4706C72.9684 30.4063 73.0873 30.3585 73.1892 30.2905C73.3097 30.2102 73.0971 30.3258 73.0933 30.3282C73.1483 30.2998 73.2059 30.2769 73.2651 30.26C73.3643 30.2233 73.796 30.0292 73.8866 30.0899C73.8825 30.0872 73.5588 30.1171 73.8205 30.0995C73.8823 30.0954 73.9439 30.0891 74.0058 30.0864C74.1311 30.081 74.2559 30.0843 74.3811 30.0911C74.7203 30.0888 75.0451 29.9473 75.285 29.6973C75.5249 29.4472 75.6607 29.1088 75.6629 28.7552C75.6557 28.4033 75.5183 28.0679 75.2794 27.819C75.0406 27.5701 74.7187 27.4269 74.381 27.4193Z" fill="#E6E6E6"/>
<path d="M333.638 323.276H19.2332C15.2575 323.271 11.4459 321.624 8.63465 318.694C5.82337 315.764 4.24202 311.792 4.23755 307.649V15.6271C4.24201 11.484 5.82333 7.51185 8.63459 4.5822C11.4459 1.65256 15.2575 0.00464594 19.2332 0H333.638C337.614 0.00464595 341.425 1.65256 344.237 4.5822C347.048 7.51185 348.629 11.484 348.634 15.6271V307.649C348.629 311.792 347.048 315.764 344.237 318.694C341.425 321.624 337.614 323.271 333.638 323.276ZM19.2332 1.78113C15.7106 1.78531 12.3335 3.24542 9.84266 5.84114C7.35183 8.43686 5.95072 11.9562 5.94671 15.6271V307.649C5.95081 311.32 7.35197 314.839 9.84279 317.435C12.3336 320.031 15.7107 321.491 19.2332 321.495H333.638C337.161 321.491 340.538 320.031 343.028 317.435C345.519 314.839 346.92 311.32 346.924 307.649V15.6271C346.921 11.9562 345.519 8.43686 343.029 5.84114C340.538 3.24542 337.161 1.78531 333.638 1.78113H19.2332Z" fill="#E6E6E6"/>
<path d="M18.7123 198.691L129.277 198.34L239.278 197.992L301.33 197.795C301.662 197.783 301.977 197.637 302.208 197.388C302.439 197.139 302.568 196.806 302.568 196.459C302.568 196.113 302.439 195.78 302.208 195.53C301.977 195.281 301.662 195.135 301.33 195.123L190.765 195.474L80.7641 195.822L18.7123 196.019C18.3801 196.031 18.0652 196.177 17.8342 196.426C17.6032 196.676 17.4741 197.009 17.4741 197.355C17.4741 197.701 17.6032 198.034 17.8342 198.284C18.0652 198.533 18.3801 198.679 18.7123 198.691Z" fill="#E6E6E6"/>
<path d="M74.4905 196.525L75.1742 154.457C75.2021 152.737 72.6384 152.737 72.6104 154.457L71.9267 196.525C71.8988 198.245 74.4625 198.245 74.4905 196.525Z" fill="#E6E6E6"/>
<path d="M127.334 196.98L129 144.103L129.476 128.995C129.53 127.276 126.966 127.278 126.912 128.995L125.246 181.872L124.77 196.98C124.716 198.7 127.28 198.698 127.334 196.98Z" fill="#E6E6E6"/>
<path d="M180.034 103.93C179.029 122.659 177.17 177.901 176.165 196.629C176.073 198.347 178.637 198.342 178.729 196.629C179.734 177.901 181.593 122.659 182.598 103.93C182.69 102.212 180.126 102.218 180.034 103.93Z" fill="#E6E6E6"/>
<path d="M232.482 177.837L232.167 195.838C232.137 197.558 234.701 197.558 234.731 195.838C235.102 174.577 236.054 175.27 236.159 169.27C236.189 167.55 233.625 167.55 233.595 169.27C233.595 169.27 232.853 156.576 232.482 177.837Z" fill="#E6E6E6"/>
<path d="M283.852 130.547L284.142 181.05L284.225 195.511C284.237 195.857 284.377 196.185 284.616 196.426C284.855 196.667 285.174 196.801 285.507 196.801C285.839 196.801 286.159 196.667 286.398 196.426C286.637 196.185 286.777 195.857 286.789 195.511L286.499 145.008L286.416 130.547C286.404 130.201 286.264 129.873 286.025 129.632C285.786 129.391 285.466 129.257 285.134 129.257C284.801 129.257 284.482 129.391 284.243 129.632C284.004 129.873 283.864 130.201 283.852 130.547Z" fill="#E6E6E6"/>
<path d="M18.9183 197.188C16.7962 191.111 21.5799 185.266 26.4953 182.639C32.3842 179.493 39.1587 178.779 45.11 175.746C53.9825 171.224 60.4449 163.107 66.1953 154.983C72.114 146.622 77.5294 137.647 85.0501 130.7C89.0131 126.957 93.6937 124.134 98.7821 122.418C105.193 120.333 111.993 120.19 118.618 121.03C132.307 122.767 144.997 128.659 158.205 132.404C170.658 135.934 184.379 137.92 196.602 132.429C202.812 129.64 207.891 124.962 213.345 120.913C218.624 116.954 224.526 113.987 230.786 112.146C243.056 108.59 256.456 109.539 267.879 115.55C278.38 121.005 286.694 130.149 291.354 141.37C296.77 154.852 296.065 169.918 294.296 184.108C293.838 187.776 293.294 191.432 292.744 195.086C292.491 196.768 294.961 197.493 295.216 195.796C297.419 181.164 299.615 166.067 296.874 151.343C294.504 138.485 287.72 126.968 277.791 118.947C267.819 110.904 255.424 106.827 242.829 107.448C236.228 107.768 229.731 109.273 223.623 111.9C217.282 114.633 211.913 118.684 206.459 122.946C200.852 127.329 195.072 130.954 188.111 132.383C181.358 133.769 174.334 133.25 167.611 131.941C153.739 129.24 140.809 123.048 127.055 119.876C114.312 116.937 100.561 116.643 89.1495 124.145C80.3717 129.916 74.1692 138.875 68.2167 147.526C62.3163 156.101 56.3414 165.271 47.7135 171.129C42.4504 174.702 36.534 176.02 30.6464 178.03C24.7435 180.045 19.0767 183.443 16.6699 189.746C15.6326 192.341 15.5529 195.245 16.4461 197.898C17.0059 199.501 19.4844 198.809 18.9183 197.188Z" fill="#E6E6E6"/>
<path d="M73.6399 148.64L73.6367 148.642L73.643 148.64H73.6399Z" fill="#E6E6E6"/>
<path d="M78.0853 146.183C77.4927 145.089 76.5475 144.25 75.4173 143.814C74.2872 143.378 73.0454 143.374 71.9125 143.802C71.3493 144.016 70.8331 144.346 70.3944 144.771C69.9556 145.197 69.6033 145.71 69.3581 146.28C69.309 146.402 69.2803 146.529 69.2403 146.653C69.1847 146.747 69.118 146.831 69.0682 146.929C68.5369 148.033 68.3914 149.294 68.6568 150.498C68.9222 151.701 69.5819 152.77 70.5223 153.521C71.4627 154.271 72.6249 154.657 73.8088 154.611C74.9926 154.565 76.1239 154.09 77.008 153.268C77.9371 152.393 78.5506 151.213 78.7466 149.924C78.9426 148.634 78.7092 147.314 78.0853 146.183ZM74.8744 148.451C74.8811 148.581 74.8849 148.519 74.8744 148.451V148.451ZM74.548 147.678C74.5354 147.663 74.537 147.665 74.548 147.678V147.678ZM73.1095 148.281C73.0883 148.245 73.0902 148.25 73.1095 148.281V148.281ZM73.4504 148.582C73.4995 148.605 73.5316 148.611 73.4504 148.582V148.582ZM73.6027 148.658L73.6364 148.642C73.6282 148.642 73.6199 148.641 73.6126 148.637L73.6135 148.637L73.64 148.64L73.6449 148.638L73.6297 148.634C73.6429 148.633 73.6441 148.635 73.6449 148.638C73.7975 148.565 73.6946 148.6 73.6061 148.628L73.6002 148.627C73.545 148.598 73.4857 148.578 73.4245 148.568C73.4188 148.565 73.4121 148.562 73.4074 148.559C73.3583 148.522 73.1102 148.32 73.3404 148.532C73.2903 148.486 73.2408 148.441 73.1937 148.391C73.1659 148.361 73.1407 148.329 73.1185 148.295C73.0883 148.241 73.059 148.186 73.0306 148.131L73.0264 148.102C73.0226 148.077 73.0198 148.067 73.0167 148.052C73.0181 148.037 73.0205 148.02 73.0228 148.005C73.0399 147.956 73.0509 147.906 73.0553 147.855L73.0652 147.842C73.1021 147.789 73.1343 147.726 73.1694 147.671C72.9836 147.965 73.2421 147.638 73.2614 147.597C73.2647 147.59 73.2589 147.593 73.2604 147.589C73.2679 147.584 73.2656 147.587 73.2746 147.582C73.3322 147.546 73.3868 147.507 73.4453 147.473C73.5149 147.433 73.7892 147.352 73.5047 147.437C73.5693 147.417 73.6314 147.393 73.6967 147.375C73.7085 147.372 73.8043 147.358 73.8559 147.348C73.9012 147.347 73.9451 147.346 73.9497 147.346C73.971 147.346 73.9923 147.349 74.0136 147.35C73.9664 147.356 74.1756 147.404 74.2377 147.413C74.2467 147.421 74.2513 147.426 74.2635 147.435C74.316 147.475 74.3799 147.51 74.4354 147.548C74.1874 147.381 74.4386 147.561 74.4859 147.61C74.5143 147.64 74.5403 147.671 74.567 147.702C74.5914 147.732 74.6135 147.763 74.633 147.797C74.6737 147.874 74.7169 147.953 74.7596 148.029L74.7715 148.049C74.7712 148.051 74.7711 148.054 74.7711 148.056C74.7934 148.18 74.8262 148.302 74.8693 148.42C74.8714 148.43 74.873 148.44 74.8741 148.45C74.8781 148.518 74.8835 148.585 74.8837 148.653L74.8831 148.667C74.6857 148.56 74.4666 148.503 74.244 148.502C74.0214 148.5 73.8016 148.553 73.6027 148.658Z" fill="#E6E6E6"/>
<path d="M73.648 148.638C73.6524 148.64 73.6472 148.64 73.6472 148.64L73.648 148.638Z" fill="#E6E6E6"/>
<path d="M73.6481 148.64L73.6436 148.641C73.6493 148.641 73.6481 148.64 73.6481 148.64Z" fill="#E6E6E6"/>
<path d="M73.6453 148.637L73.6473 148.638L73.6453 148.637Z" fill="#E6E6E6"/>
<path d="M128.333 123.704L128.33 123.707L128.336 123.704H128.333Z" fill="#E6E6E6"/>
<path d="M132.778 121.247C132.186 120.153 131.241 119.314 130.11 118.878C128.98 118.442 127.739 118.438 126.606 118.866C126.042 119.08 125.526 119.41 125.087 119.836C124.649 120.261 124.296 120.774 124.051 121.344C124.002 121.466 123.973 121.593 123.933 121.717C123.878 121.811 123.811 121.895 123.761 121.993C123.23 123.097 123.084 124.359 123.35 125.562C123.615 126.765 124.275 127.834 125.215 128.585C126.156 129.336 127.318 129.721 128.502 129.675C129.686 129.629 130.817 129.154 131.701 128.332C132.63 127.457 133.244 126.277 133.44 124.988C133.636 123.699 133.402 122.378 132.778 121.247ZM129.567 123.516C129.574 123.645 129.578 123.583 129.567 123.516V123.516ZM129.241 122.742C129.229 122.727 129.23 122.729 129.241 122.742V122.742ZM127.803 123.345C127.781 123.309 127.783 123.314 127.803 123.345V123.345ZM128.144 123.646C128.193 123.669 128.225 123.675 128.144 123.646V123.646ZM128.296 123.722L128.33 123.706C128.321 123.707 128.313 123.705 128.306 123.701L128.307 123.701L128.333 123.704L128.338 123.702L128.323 123.698C128.336 123.698 128.337 123.7 128.338 123.702C128.491 123.629 128.388 123.664 128.299 123.692L128.293 123.691C128.238 123.662 128.179 123.642 128.118 123.632C128.112 123.629 128.105 123.626 128.1 123.623C128.051 123.586 127.803 123.385 128.033 123.596C127.983 123.55 127.934 123.505 127.887 123.455C127.859 123.425 127.834 123.393 127.812 123.359C127.781 123.305 127.752 123.25 127.724 123.196L127.719 123.166C127.716 123.141 127.713 123.131 127.71 123.116C127.711 123.101 127.714 123.085 127.716 123.069C127.733 123.021 127.744 122.97 127.748 122.919L127.758 122.906C127.795 122.853 127.827 122.79 127.863 122.735C127.677 123.029 127.935 122.702 127.954 122.661C127.958 122.654 127.952 122.658 127.953 122.653C127.961 122.648 127.959 122.651 127.968 122.646C128.025 122.61 128.08 122.571 128.138 122.537C128.208 122.497 128.482 122.416 128.198 122.501C128.262 122.481 128.324 122.457 128.39 122.439C128.402 122.436 128.497 122.422 128.549 122.413C128.594 122.411 128.638 122.41 128.643 122.41C128.664 122.41 128.685 122.413 128.707 122.414C128.659 122.421 128.869 122.468 128.931 122.478C128.94 122.485 128.944 122.49 128.957 122.499C129.009 122.539 129.073 122.574 129.128 122.612C128.881 122.445 129.132 122.625 129.179 122.674C129.207 122.704 129.233 122.735 129.26 122.766C129.284 122.796 129.307 122.828 129.326 122.861C129.367 122.938 129.41 123.017 129.453 123.093L129.465 123.113C129.464 123.116 129.464 123.118 129.464 123.121C129.486 123.244 129.519 123.366 129.562 123.484C129.564 123.494 129.566 123.504 129.567 123.514C129.571 123.582 129.577 123.649 129.577 123.718L129.576 123.731C129.379 123.624 129.16 123.567 128.937 123.566C128.714 123.564 128.495 123.618 128.296 123.722Z" fill="#E6E6E6"/>
<path d="M128.341 123.704L128.337 123.705C128.342 123.706 128.341 123.704 128.341 123.704Z" fill="#E6E6E6"/>
<path d="M128.338 123.702L128.34 123.703L128.338 123.702Z" fill="#E6E6E6"/>
<path d="M128.341 123.703C128.346 123.704 128.341 123.704 128.341 123.704L128.341 123.703Z" fill="#E6E6E6"/>
<path d="M181.323 136.17L181.325 136.171L181.323 136.17Z" fill="#E6E6E6"/>
<path d="M185.763 96.3109C185.17 95.2174 184.225 94.3782 183.095 93.9423C181.964 93.5064 180.723 93.5021 179.59 93.9301C179.027 94.1443 178.51 94.474 178.072 94.8997C177.633 95.3255 177.281 95.8385 177.035 96.4086C176.986 96.5298 176.958 96.6572 176.918 96.7814C176.862 96.875 176.795 96.9595 176.745 97.0574C176.214 98.1608 176.069 99.4227 176.334 100.626C176.599 101.829 177.259 102.898 178.2 103.649C179.14 104.4 180.302 104.785 181.486 104.739C182.67 104.693 183.801 104.218 184.685 103.396C185.614 102.521 186.228 101.341 186.424 100.052C186.62 98.7627 186.386 97.4425 185.763 96.3109ZM182.552 98.5797C182.558 98.7091 182.562 98.6471 182.552 98.5797V98.5797ZM182.225 97.8063C182.213 97.7912 182.214 97.7929 182.225 97.8063V97.8063ZM180.787 98.4091C180.766 98.3731 180.767 98.3782 180.787 98.4091V98.4091ZM181.128 98.7104C181.177 98.7331 181.209 98.7392 181.128 98.7104V98.7104ZM181.28 98.786L181.314 98.7699C181.305 98.7707 181.297 98.769 181.29 98.7649L181.291 98.7648L181.317 98.7682L181.322 98.7658L181.307 98.7621C181.32 98.7617 181.321 98.7637 181.322 98.7658C181.475 98.6931 181.372 98.728 181.283 98.7565L181.277 98.7551C181.222 98.7258 181.163 98.706 181.102 98.6963C181.096 98.693 181.089 98.6906 181.085 98.6871C181.035 98.6506 180.787 98.4487 181.018 98.6604C180.967 98.6143 180.918 98.5691 180.871 98.5193C180.843 98.4896 180.818 98.4574 180.796 98.423C180.765 98.369 180.736 98.3146 180.708 98.2597L180.704 98.23C180.7 98.2054 180.697 98.1952 180.694 98.1804C180.695 98.1651 180.698 98.1487 180.7 98.1328C180.717 98.0847 180.728 98.0345 180.733 97.9835L180.742 97.9704C180.779 97.9169 180.811 97.8544 180.847 97.7988C180.661 98.0928 180.919 97.7663 180.939 97.725C180.942 97.7179 180.936 97.7217 180.938 97.7169C180.945 97.7125 180.943 97.7155 180.952 97.71C181.009 97.6746 181.064 97.6352 181.122 97.6015C181.192 97.5612 181.466 97.4801 181.182 97.5648C181.247 97.5456 181.309 97.5213 181.374 97.5035C181.386 97.5003 181.481 97.4863 181.533 97.4767C181.578 97.4755 181.622 97.4741 181.627 97.4741C181.648 97.4744 181.669 97.4771 181.691 97.4781C181.644 97.4847 181.853 97.5318 181.915 97.5417C181.924 97.5491 181.928 97.5538 181.941 97.5631C181.993 97.6031 182.057 97.6386 182.113 97.676C181.865 97.509 182.116 97.6892 182.163 97.7386C182.191 97.7681 182.218 97.7996 182.244 97.8306C182.269 97.8602 182.291 97.8917 182.31 97.925C182.351 98.0026 182.394 98.0812 182.437 98.1575L182.449 98.1771C182.448 98.1797 182.448 98.1822 182.448 98.1847C182.471 98.3086 182.503 98.4301 182.546 98.5479C182.549 98.5578 182.55 98.5679 182.551 98.578C182.555 98.6459 182.561 98.7135 182.561 98.7817L182.56 98.7955C182.363 98.6882 182.144 98.6315 181.921 98.6298C181.699 98.6281 181.479 98.6817 181.28 98.786Z" fill="#E6E6E6"/>
<path d="M181.317 136.172L181.314 136.175L181.32 136.172H181.317Z" fill="#E6E6E6"/>
<path d="M181.325 136.172L181.321 136.173C181.327 136.173 181.325 136.172 181.325 136.172Z" fill="#E6E6E6"/>
<path d="M181.325 136.171C181.33 136.172 181.324 136.172 181.324 136.172L181.325 136.171Z" fill="#E6E6E6"/>
<path d="M239.601 164.885C239.009 163.791 238.063 162.952 236.933 162.516C235.803 162.08 234.561 162.076 233.428 162.504C232.865 162.718 232.349 163.048 231.91 163.473C231.471 163.899 231.119 164.412 230.874 164.982C230.825 165.103 230.796 165.231 230.756 165.355C230.701 165.449 230.634 165.533 230.584 165.631C230.053 166.734 229.907 167.996 230.173 169.2C230.438 170.403 231.098 171.472 232.038 172.223C232.979 172.973 234.141 173.359 235.325 173.313C236.508 173.267 237.64 172.792 238.524 171.97C239.453 171.095 240.066 169.915 240.262 168.625C240.458 167.336 240.225 166.016 239.601 164.885ZM236.39 167.153C236.397 167.283 236.401 167.221 236.39 167.153V167.153ZM236.064 166.38C236.051 166.365 236.053 166.367 236.064 166.38V166.38ZM234.625 166.983C234.604 166.947 234.606 166.952 234.625 166.983V166.983ZM234.966 167.284C235.015 167.307 235.047 167.313 234.966 167.284V167.284ZM235.119 167.36L235.152 167.344C235.144 167.344 235.136 167.343 235.128 167.339L235.129 167.338L235.156 167.342L235.161 167.34L235.145 167.336C235.159 167.335 235.16 167.337 235.161 167.34C235.313 167.267 235.21 167.302 235.122 167.33L235.116 167.329C235.061 167.3 235.001 167.28 234.94 167.27C234.935 167.267 234.928 167.264 234.923 167.261C234.874 167.224 234.626 167.022 234.856 167.234C234.806 167.188 234.757 167.143 234.709 167.093C234.682 167.063 234.657 167.031 234.634 166.997C234.604 166.943 234.575 166.888 234.546 166.833L234.542 166.804C234.538 166.779 234.536 166.769 234.532 166.754C234.534 166.739 234.536 166.722 234.539 166.706C234.556 166.658 234.567 166.608 234.571 166.557L234.581 166.544C234.618 166.491 234.65 166.428 234.685 166.372C234.499 166.667 234.758 166.34 234.777 166.299C234.78 166.292 234.775 166.295 234.776 166.291C234.784 166.286 234.781 166.289 234.79 166.284C234.848 166.248 234.903 166.209 234.961 166.175C235.031 166.135 235.305 166.054 235.021 166.138C235.085 166.119 235.147 166.095 235.212 166.077C235.224 166.074 235.32 166.06 235.372 166.05C235.417 166.049 235.461 166.048 235.466 166.048C235.487 166.048 235.508 166.051 235.529 166.052C235.482 166.058 235.691 166.105 235.754 166.115C235.763 166.123 235.767 166.127 235.779 166.137C235.832 166.177 235.896 166.212 235.951 166.25C235.703 166.083 235.954 166.263 236.002 166.312C236.03 166.342 236.056 166.373 236.083 166.404C236.107 166.434 236.129 166.465 236.149 166.499C236.189 166.576 236.233 166.655 236.275 166.731L236.287 166.751C236.287 166.753 236.287 166.756 236.287 166.758C236.309 166.882 236.342 167.004 236.385 167.122C236.387 167.131 236.389 167.142 236.39 167.152C236.394 167.22 236.399 167.287 236.399 167.355L236.399 167.369C236.202 167.262 235.982 167.205 235.76 167.203C235.537 167.202 235.317 167.255 235.119 167.36Z" fill="#E6E6E6"/>
<path d="M235.155 108.565L235.152 108.567L235.159 108.565H235.155Z" fill="#E6E6E6"/>
<path d="M235.164 108.564L235.159 108.565C235.165 108.566 235.164 108.564 235.164 108.564Z" fill="#E6E6E6"/>
<path d="M235.164 108.563C235.168 108.564 235.163 108.564 235.163 108.564L235.164 108.563Z" fill="#E6E6E6"/>
<path d="M235.161 108.562L235.163 108.563L235.161 108.562Z" fill="#E6E6E6"/>
<path d="M290.021 123.918C289.429 122.825 288.483 121.986 287.353 121.55C286.223 121.114 284.981 121.11 283.849 121.538C283.285 121.752 282.769 122.082 282.33 122.507C281.892 122.933 281.539 123.446 281.294 124.016C281.245 124.137 281.216 124.265 281.176 124.389C281.121 124.483 281.054 124.567 281.004 124.665C280.473 125.768 280.327 127.03 280.593 128.233C280.858 129.437 281.518 130.506 282.458 131.256C283.399 132.007 284.561 132.393 285.745 132.347C286.929 132.301 288.06 131.826 288.944 131.004C289.873 130.129 290.487 128.948 290.683 127.659C290.879 126.37 290.645 125.05 290.021 123.918ZM286.81 126.187C286.817 126.317 286.821 126.255 286.81 126.187V126.187ZM286.484 125.414C286.471 125.399 286.473 125.4 286.484 125.414V125.414ZM285.045 126.017C285.024 125.981 285.026 125.986 285.045 126.017V126.017ZM285.386 126.318C285.436 126.341 285.468 126.347 285.386 126.318V126.318ZM285.539 126.394L285.572 126.377C285.564 126.378 285.556 126.377 285.549 126.372L285.55 126.372L285.576 126.376L285.581 126.373L285.566 126.37C285.579 126.369 285.58 126.371 285.581 126.373C285.733 126.301 285.631 126.335 285.542 126.364L285.536 126.363C285.481 126.333 285.422 126.314 285.36 126.304C285.355 126.301 285.348 126.298 285.343 126.295C285.294 126.258 285.046 126.056 285.276 126.268C285.226 126.222 285.177 126.177 285.13 126.127C285.102 126.097 285.077 126.065 285.054 126.031C285.024 125.977 284.995 125.922 284.967 125.867L284.962 125.838C284.959 125.813 284.956 125.803 284.953 125.788C284.954 125.773 284.956 125.756 284.959 125.74C284.976 125.692 284.987 125.642 284.991 125.591L285.001 125.578C285.038 125.524 285.07 125.462 285.105 125.406C284.92 125.7 285.178 125.374 285.197 125.332C285.201 125.325 285.195 125.329 285.196 125.324C285.204 125.32 285.202 125.323 285.211 125.317C285.268 125.282 285.323 125.243 285.381 125.209C285.451 125.169 285.725 125.088 285.441 125.172C285.505 125.153 285.567 125.129 285.633 125.111C285.644 125.108 285.74 125.094 285.792 125.084C285.837 125.083 285.881 125.082 285.886 125.082C285.907 125.082 285.928 125.085 285.95 125.086C285.902 125.092 286.112 125.139 286.174 125.149C286.183 125.157 286.187 125.161 286.199 125.171C286.252 125.211 286.316 125.246 286.371 125.284C286.123 125.117 286.375 125.297 286.422 125.346C286.45 125.376 286.476 125.407 286.503 125.438C286.527 125.468 286.549 125.499 286.569 125.533C286.61 125.61 286.653 125.689 286.696 125.765L286.707 125.785C286.707 125.787 286.707 125.79 286.707 125.792C286.729 125.916 286.762 126.038 286.805 126.155C286.807 126.165 286.809 126.175 286.81 126.186C286.814 126.253 286.82 126.321 286.82 126.389L286.819 126.403C286.622 126.296 286.403 126.239 286.18 126.237C285.957 126.236 285.738 126.289 285.539 126.394Z" fill="#E6E6E6"/>
<path d="M285.576 126.376L285.573 126.378L285.579 126.376H285.576Z" fill="#E6E6E6"/>
<path d="M285.581 126.373L285.583 126.374L285.581 126.373Z" fill="#E6E6E6"/>
<path d="M285.584 126.374C285.589 126.376 285.583 126.376 285.583 126.376L285.584 126.374Z" fill="#E6E6E6"/>
<path d="M285.584 126.376L285.58 126.376C285.585 126.377 285.584 126.376 285.584 126.376Z" fill="#E6E6E6"/>
<path d="M271.759 167.189L232.024 169.491C231.8 169.504 231.58 169.427 231.409 169.275C231.238 169.124 231.129 168.91 231.105 168.678C231.08 168.445 231.142 168.212 231.278 168.026C231.414 167.84 231.613 167.715 231.835 167.678L272.448 160.791L271.759 167.189Z" fill="#3F3D56"/>
<path d="M322.257 259.377L337.231 233.125L348.298 238.572C348.298 238.572 329.228 263.394 328.62 264.108C328.881 265.314 328.783 266.575 328.341 267.722C327.899 268.87 327.133 269.85 326.144 270.534C325.156 271.218 323.991 271.573 322.805 271.552C321.618 271.532 320.466 271.136 319.5 270.418C318.534 269.7 317.8 268.693 317.395 267.531C316.99 266.368 316.933 265.105 317.232 263.909C317.531 262.712 318.171 261.638 319.069 260.829C319.966 260.02 321.078 259.514 322.257 259.377Z" fill="#FFB6B6"/>
<path d="M328.486 198.395L352.745 211.585C354.261 212.723 355.533 214.178 356.478 215.858C357.424 217.537 358.023 219.404 358.237 221.338C358.451 223.273 358.275 225.232 357.721 227.092C357.167 228.952 356.247 230.67 355.019 232.138L338.294 252.131L331.009 241.842L336.624 229.606L325.751 226.618L328.486 198.395Z" fill="#7FB35B"/>
<path d="M259.353 167.618L256.62 198.025L244.381 198.046C244.381 198.046 251.403 167.102 251.658 166.186C250.927 165.212 250.497 164.03 250.424 162.796C250.352 161.561 250.641 160.333 251.253 159.274C251.864 158.214 252.771 157.373 253.851 156.862C254.932 156.351 256.135 156.194 257.304 156.411C258.472 156.629 259.549 157.21 260.393 158.08C261.237 158.949 261.807 160.065 262.03 161.28C262.252 162.494 262.115 163.751 261.637 164.882C261.159 166.014 260.362 166.968 259.353 167.618Z" fill="#FFB6B6"/>
<path d="M283.716 229.799L255.546 224.415C243.683 222.929 238.814 214.795 240.955 206.861L247.843 181.328L258.657 187.37L258.616 200.933L273.753 198.777L283.716 229.799Z" fill="#7FB35B"/>
<path d="M272.185 439.933H264.439L260.754 408.797H272.186L272.185 439.933Z" fill="#FFB6B6"/>
<path d="M272.458 448.354L248.638 448.353V448.04C248.638 445.477 249.615 443.02 251.354 441.208C253.092 439.396 255.45 438.378 257.909 438.378L262.261 434.938L270.379 438.378L272.458 438.378L272.458 448.354Z" fill="#2F2E41"/>
<path d="M326.993 439.933H334.739L338.424 408.797H326.992L326.993 439.933Z" fill="#FFB6B6"/>
<path d="M326.721 448.354L350.541 448.353V448.04C350.54 445.477 349.564 443.02 347.825 441.208C346.086 439.396 343.728 438.378 341.269 438.378L336.918 434.938L328.8 438.378L326.72 438.378L326.721 448.354Z" fill="#2F2E41"/>
<path d="M260.413 385.917C260.528 384.14 261.437 374.315 261.437 374.315L263.616 353.478L267.456 298.243L270.879 283.725L287.821 290.603L301.569 283.735L317.909 289.178L330.633 294.151C330.633 294.151 330.655 296.279 330.753 298.85C330.884 302.216 331.112 306.343 331.657 307.416C332.567 309.312 332.338 319.489 332.338 319.489C332.338 319.489 333.242 340.195 334.38 342.466C335.519 344.736 335.748 349.465 335.404 350.412C335.061 351.36 336.543 376.227 336.543 376.227C336.543 376.227 340.345 420.233 337.96 426.869C335.574 433.504 326.559 429.157 326.559 429.157C326.559 429.157 326.995 427.387 324.38 426.552C321.766 425.718 313.803 363.32 313.803 363.32C313.803 363.32 312.321 350.526 310.959 346.859C309.598 343.192 308.345 332.89 308.345 332.89C308.345 332.89 299.935 315.839 299.826 312.047C299.826 312.047 298.726 308.5 297.686 312.405C296.645 316.31 293.579 325.664 293.579 325.664L290.588 337.153L287.07 354.318L284.793 368.769C284.793 368.769 281.383 387.949 280.839 388.777C280.294 389.606 280.839 407.128 280.839 407.128C280.839 407.128 278.202 422.051 274.477 424.656C270.751 427.262 260.881 424.698 260.881 424.698C260.881 424.698 260.299 387.693 260.413 385.917Z" fill="#2F2E41"/>
<path d="M273.079 237.009L270.914 266.235L267.661 269.743C267.368 270.06 267.139 270.434 266.988 270.845C266.837 271.256 266.767 271.694 266.782 272.134C266.798 272.573 266.898 273.005 267.077 273.403C267.257 273.801 267.511 274.158 267.826 274.451L266.034 277.653L265.399 287.744C265.218 288.529 265.206 289.346 265.363 290.136C265.52 290.927 265.843 291.672 266.308 292.317C266.773 292.963 267.369 293.494 268.054 293.872C268.739 294.249 269.495 294.465 270.269 294.503L326.357 297.249C327.127 297.287 327.895 297.148 328.607 296.842C329.32 296.536 329.959 296.071 330.48 295.48C331.002 294.889 331.392 294.185 331.623 293.419C331.855 292.654 331.923 291.844 331.821 291.048L327.052 253.632V250.835L324.917 245.431L326.014 227.331L328.567 198.603L313.729 194.609L305.684 188.841L291.708 189.073L283.227 196.331L271.92 198.176L263.368 199.948L262.279 202.415L264.458 201.921L272.354 234.019L273.079 237.009Z" fill="#7FB35B"/>
<path d="M298.384 184.924C307.477 184.924 314.848 177.243 314.848 167.767C314.848 158.291 307.477 150.609 298.384 150.609C289.291 150.609 281.919 158.291 281.919 167.767C281.919 177.243 289.291 184.924 298.384 184.924Z" fill="#FFB6B6"/>
<path d="M294.414 183.818L306.309 183.185C307.834 183.104 309.497 182.964 310.606 181.871C311.202 181.196 311.661 180.402 311.954 179.537C313.054 176.875 314.154 174.212 315.225 171.538C316.708 167.839 318.163 163.933 317.785 159.943C317.696 158.121 316.963 156.398 315.727 155.106C315.096 154.484 314.285 154.097 313.421 154.006C312.557 153.914 311.688 154.124 310.95 154.602C310.766 153.34 310.31 152.138 309.616 151.087C308.921 150.036 308.006 149.163 306.94 148.535C304.787 147.296 302.329 146.753 299.879 146.975C296.324 147.214 292.93 148.608 290.174 150.961C289.399 151.706 288.572 152.39 287.699 153.006C287.259 153.312 286.765 153.521 286.245 153.621C285.726 153.721 285.192 153.71 284.677 153.588C284.167 153.446 283.723 153.116 283.428 152.66C283.133 152.203 283.006 151.651 283.072 151.104C282.234 151.757 281.66 152.712 281.461 153.782C281.262 154.852 281.452 155.961 281.995 156.893C281.378 157.162 280.704 157.261 280.039 157.179C279.374 157.097 278.741 156.837 278.201 156.425C277.622 156.724 277.11 157.146 276.697 157.663C276.284 158.181 275.979 158.783 275.802 159.43C275.625 160.077 275.579 160.756 275.668 161.423C275.758 162.089 275.979 162.729 276.32 163.302C276.66 163.874 277.111 164.366 277.644 164.746C278.177 165.126 278.781 165.386 279.416 165.509C280.051 165.631 280.704 165.615 281.332 165.46C281.961 165.305 282.551 165.014 283.066 164.608C283.788 165.662 283.519 167.094 283.425 168.385C283.331 169.676 283.663 171.28 284.857 171.637C286.472 172.12 287.78 169.854 289.46 169.878C289.874 169.913 290.274 170.054 290.623 170.289C290.972 170.524 291.261 170.845 291.463 171.223C291.858 171.984 292.129 172.809 292.264 173.663L294.414 183.747" fill="#2F2E41"/>
<path d="M758.233 338.092C758.233 335.435 757.377 333.279 756.326 333.274H469.746C468.69 333.279 467.839 335.435 467.834 338.092V447.462C467.834 447.709 467.746 447.947 467.587 448.129C467.428 448.312 467.21 448.427 466.974 448.451C466.205 448.527 465.436 448.599 464.666 448.665C464.647 448.665 464.628 448.67 464.609 448.67C464.191 448.71 463.772 448.74 463.354 448.774H463.349C463.134 448.359 462.921 447.941 462.71 447.519C462.639 447.377 462.602 447.219 462.602 447.058V331.842C462.602 331.108 462.631 330.369 462.678 329.641C462.746 328.64 462.865 327.644 463.035 326.657C463.839 322.052 465.656 318.934 467.72 318.924H758.347C758.648 318.926 758.946 318.992 759.222 319.117C759.628 319.304 759.995 319.572 760.302 319.905C760.719 320.357 761.076 320.866 761.363 321.417C762.547 323.877 763.229 326.565 763.365 329.313C763.365 329.343 763.37 329.373 763.37 329.403C763.437 330.206 763.47 331.024 763.465 331.842L763.532 342.464L763.575 348.799L763.703 368.676L763.751 375.735L763.96 448.204C763.96 448.467 763.86 448.719 763.681 448.905C763.503 449.091 763.261 449.196 763.009 449.196H759.184C758.932 449.196 758.69 449.091 758.512 448.905C758.333 448.719 758.233 448.467 758.233 448.204V338.092Z" fill="#E6E6E6"/>
<path d="M680.36 269.218H649.481C649.044 269.219 648.625 269.401 648.317 269.723C648.009 270.045 647.835 270.482 647.836 270.937V321.772H682.01V270.937C682.01 270.711 681.967 270.488 681.884 270.279C681.802 270.071 681.68 269.881 681.527 269.722C681.374 269.562 681.192 269.435 680.992 269.349C680.792 269.263 680.577 269.218 680.36 269.218ZM665.025 298.102C664.059 298.097 663.134 297.695 662.451 296.984C661.768 296.272 661.383 295.308 661.378 294.302V288.439C661.378 287.431 661.762 286.464 662.446 285.752C663.13 285.039 664.058 284.639 665.025 284.639C665.992 284.639 666.919 285.039 667.603 285.752C668.287 286.464 668.671 287.431 668.671 288.439V294.302C668.666 295.308 668.281 296.272 667.598 296.984C666.915 297.695 665.99 298.097 665.025 298.102Z" fill="#CCCCCC"/>
<path d="M647.73 320.146V325.05C647.73 325.304 647.827 325.548 648 325.728C648.172 325.907 648.406 326.009 648.65 326.009H681.196C681.439 326.008 681.672 325.906 681.845 325.727C682.017 325.547 682.114 325.304 682.116 325.05V320.146H647.73Z" fill="#3F3D56"/>
<path d="M731.494 189.885H599.496C598.362 189.887 597.275 190.358 596.473 191.193C595.671 192.029 595.22 193.162 595.218 194.344V287.167C595.219 288.349 595.67 289.482 596.473 290.318C597.275 291.154 598.362 291.624 599.496 291.625H731.494C732.628 291.624 733.716 291.154 734.518 290.318C735.32 289.482 735.771 288.349 735.772 287.167V194.344C735.77 193.162 735.319 192.029 734.517 191.193C733.715 190.358 732.628 189.887 731.494 189.885Z" fill="#E6E6E6"/>
<path d="M730.392 193.106H600.599C599.992 193.107 599.41 193.359 598.981 193.807C598.552 194.255 598.311 194.862 598.311 195.495V286.017C598.312 286.649 598.554 287.255 598.983 287.702C599.411 288.149 599.993 288.4 600.599 288.402H730.392C730.998 288.4 731.58 288.149 732.009 287.702C732.437 287.255 732.679 286.649 732.68 286.017V195.495C732.68 194.862 732.439 194.255 732.01 193.807C731.581 193.359 730.999 193.107 730.392 193.106Z" fill="white"/>
<path d="M705.11 327.716H627.891C627.679 327.716 627.471 327.667 627.28 327.572C627.089 327.477 626.921 327.339 626.788 327.168C626.654 326.997 626.56 326.797 626.51 326.583C626.46 326.369 626.457 326.146 626.501 325.93L627.699 320C627.767 319.668 627.942 319.371 628.195 319.157C628.448 318.943 628.763 318.826 629.089 318.825H703.912C704.238 318.826 704.553 318.943 704.806 319.157C705.059 319.371 705.234 319.668 705.302 320L706.5 325.93C706.544 326.146 706.541 326.369 706.491 326.583C706.442 326.797 706.347 326.997 706.213 327.168C706.08 327.339 705.912 327.477 705.721 327.572C705.53 327.667 705.322 327.716 705.11 327.716Z" fill="#CCCCCC"/>
<path d="M631.598 319.893H630.054C629.824 319.893 629.637 320.087 629.637 320.327V320.945C629.637 321.185 629.824 321.38 630.054 321.38H631.598C631.829 321.38 632.015 321.185 632.015 320.945V320.327C632.015 320.087 631.829 319.893 631.598 319.893Z" fill="#E6E6E6"/>
<path d="M636.355 319.893H634.811C634.581 319.893 634.394 320.087 634.394 320.327V320.945C634.394 321.185 634.581 321.38 634.811 321.38H636.355C636.585 321.38 636.772 321.185 636.772 320.945V320.327C636.772 320.087 636.585 319.893 636.355 319.893Z" fill="#E6E6E6"/>
<path d="M641.111 319.893H639.568C639.337 319.893 639.15 320.087 639.15 320.327V320.945C639.15 321.185 639.337 321.38 639.568 321.38H641.111C641.342 321.38 641.529 321.185 641.529 320.945V320.327C641.529 320.087 641.342 319.893 641.111 319.893Z" fill="#E6E6E6"/>
<path d="M645.868 319.893H644.324C644.094 319.893 643.907 320.087 643.907 320.327V320.945C643.907 321.185 644.094 321.38 644.324 321.38H645.868C646.098 321.38 646.285 321.185 646.285 320.945V320.327C646.285 320.087 646.098 319.893 645.868 319.893Z" fill="#E6E6E6"/>
<path d="M650.625 319.893H649.081C648.85 319.893 648.664 320.087 648.664 320.327V320.945C648.664 321.185 648.85 321.38 649.081 321.38H650.625C650.855 321.38 651.042 321.185 651.042 320.945V320.327C651.042 320.087 650.855 319.893 650.625 319.893Z" fill="#E6E6E6"/>
<path d="M655.381 319.893H653.837C653.607 319.893 653.42 320.087 653.42 320.327V320.945C653.42 321.185 653.607 321.38 653.837 321.38H655.381C655.612 321.38 655.798 321.185 655.798 320.945V320.327C655.798 320.087 655.612 319.893 655.381 319.893Z" fill="#E6E6E6"/>
<path d="M660.138 319.893H658.594C658.364 319.893 658.177 320.087 658.177 320.327V320.945C658.177 321.185 658.364 321.38 658.594 321.38H660.138C660.368 321.38 660.555 321.185 660.555 320.945V320.327C660.555 320.087 660.368 319.893 660.138 319.893Z" fill="#E6E6E6"/>
<path d="M664.894 319.893H663.35C663.12 319.893 662.933 320.087 662.933 320.327V320.945C662.933 321.185 663.12 321.38 663.35 321.38H664.894C665.125 321.38 665.311 321.185 665.311 320.945V320.327C665.311 320.087 665.125 319.893 664.894 319.893Z" fill="#E6E6E6"/>
<path d="M669.651 319.893H668.107C667.877 319.893 667.69 320.087 667.69 320.327V320.945C667.69 321.185 667.877 321.38 668.107 321.38H669.651C669.881 321.38 670.068 321.185 670.068 320.945V320.327C670.068 320.087 669.881 319.893 669.651 319.893Z" fill="#E6E6E6"/>
<path d="M674.407 319.893H672.863C672.633 319.893 672.446 320.087 672.446 320.327V320.945C672.446 321.185 672.633 321.38 672.863 321.38H674.407C674.638 321.38 674.825 321.185 674.825 320.945V320.327C674.825 320.087 674.638 319.893 674.407 319.893Z" fill="#E6E6E6"/>
<path d="M679.164 319.893H677.62C677.39 319.893 677.203 320.087 677.203 320.327V320.945C677.203 321.185 677.39 321.38 677.62 321.38H679.164C679.395 321.38 679.581 321.185 679.581 320.945V320.327C679.581 320.087 679.395 319.893 679.164 319.893Z" fill="#E6E6E6"/>
<path d="M683.921 319.893H682.377C682.146 319.893 681.959 320.087 681.959 320.327V320.945C681.959 321.185 682.146 321.38 682.377 321.38H683.921C684.151 321.38 684.338 321.185 684.338 320.945V320.327C684.338 320.087 684.151 319.893 683.921 319.893Z" fill="#E6E6E6"/>
<path d="M688.677 319.893H687.134C686.903 319.893 686.716 320.087 686.716 320.327V320.945C686.716 321.185 686.903 321.38 687.134 321.38H688.677C688.908 321.38 689.095 321.185 689.095 320.945V320.327C689.095 320.087 688.908 319.893 688.677 319.893Z" fill="#E6E6E6"/>
<path d="M693.434 319.893H691.89C691.659 319.893 691.473 320.087 691.473 320.327V320.945C691.473 321.185 691.659 321.38 691.89 321.38H693.434C693.664 321.38 693.851 321.185 693.851 320.945V320.327C693.851 320.087 693.664 319.893 693.434 319.893Z" fill="#E6E6E6"/>
<path d="M698.191 319.893H696.647C696.416 319.893 696.229 320.087 696.229 320.327V320.945C696.229 321.185 696.416 321.38 696.647 321.38H698.191C698.421 321.38 698.608 321.185 698.608 320.945V320.327C698.608 320.087 698.421 319.893 698.191 319.893Z" fill="#E6E6E6"/>
<path d="M702.947 319.893H701.403C701.173 319.893 700.986 320.087 700.986 320.327V320.945C700.986 321.185 701.173 321.38 701.403 321.38H702.947C703.177 321.38 703.364 321.185 703.364 320.945V320.327C703.364 320.087 703.177 319.893 702.947 319.893Z" fill="#E6E6E6"/>
<path d="M631.542 322.371H629.998C629.768 322.371 629.581 322.566 629.581 322.806V323.423C629.581 323.663 629.768 323.858 629.998 323.858H631.542C631.773 323.858 631.959 323.663 631.959 323.423V322.806C631.959 322.566 631.773 322.371 631.542 322.371Z" fill="#E6E6E6"/>
<path d="M636.298 322.371H634.755C634.524 322.371 634.337 322.566 634.337 322.806V323.423C634.337 323.663 634.524 323.858 634.755 323.858H636.298C636.529 323.858 636.716 323.663 636.716 323.423V322.806C636.716 322.566 636.529 322.371 636.298 322.371Z" fill="#E6E6E6"/>
<path d="M641.055 322.371H639.511C639.281 322.371 639.094 322.566 639.094 322.806V323.423C639.094 323.663 639.281 323.858 639.511 323.858H641.055C641.286 323.858 641.473 323.663 641.473 323.423V322.806C641.473 322.566 641.286 322.371 641.055 322.371Z" fill="#E6E6E6"/>
<path d="M645.812 322.371H644.268C644.037 322.371 643.851 322.566 643.851 322.806V323.423C643.851 323.663 644.037 323.858 644.268 323.858H645.812C646.042 323.858 646.229 323.663 646.229 323.423V322.806C646.229 322.566 646.042 322.371 645.812 322.371Z" fill="#E6E6E6"/>
<path d="M650.569 322.371H649.025C648.794 322.371 648.607 322.566 648.607 322.806V323.423C648.607 323.663 648.794 323.858 649.025 323.858H650.569C650.799 323.858 650.986 323.663 650.986 323.423V322.806C650.986 322.566 650.799 322.371 650.569 322.371Z" fill="#E6E6E6"/>
<path d="M655.325 322.371H653.781C653.551 322.371 653.364 322.566 653.364 322.806V323.423C653.364 323.663 653.551 323.858 653.781 323.858H655.325C655.555 323.858 655.742 323.663 655.742 323.423V322.806C655.742 322.566 655.555 322.371 655.325 322.371Z" fill="#E6E6E6"/>
<path d="M660.082 322.371H658.538C658.307 322.371 658.121 322.566 658.121 322.806V323.423C658.121 323.663 658.307 323.858 658.538 323.858H660.082C660.312 323.858 660.499 323.663 660.499 323.423V322.806C660.499 322.566 660.312 322.371 660.082 322.371Z" fill="#E6E6E6"/>
<path d="M664.838 322.371H663.294C663.064 322.371 662.877 322.566 662.877 322.806V323.423C662.877 323.663 663.064 323.858 663.294 323.858H664.838C665.068 323.858 665.255 323.663 665.255 323.423V322.806C665.255 322.566 665.068 322.371 664.838 322.371Z" fill="#E6E6E6"/>
<path d="M669.595 322.371H668.051C667.821 322.371 667.634 322.566 667.634 322.806V323.423C667.634 323.663 667.821 323.858 668.051 323.858H669.595C669.825 323.858 670.012 323.663 670.012 323.423V322.806C670.012 322.566 669.825 322.371 669.595 322.371Z" fill="#E6E6E6"/>
<path d="M674.351 322.371H672.807C672.577 322.371 672.39 322.566 672.39 322.806V323.423C672.39 323.663 672.577 323.858 672.807 323.858H674.351C674.582 323.858 674.768 323.663 674.768 323.423V322.806C674.768 322.566 674.582 322.371 674.351 322.371Z" fill="#E6E6E6"/>
<path d="M679.108 322.371H677.564C677.334 322.371 677.147 322.566 677.147 322.806V323.423C677.147 323.663 677.334 323.858 677.564 323.858H679.108C679.338 323.858 679.525 323.663 679.525 323.423V322.806C679.525 322.566 679.338 322.371 679.108 322.371Z" fill="#E6E6E6"/>
<path d="M683.864 322.371H682.321C682.09 322.371 681.903 322.566 681.903 322.806V323.423C681.903 323.663 682.09 323.858 682.321 323.858H683.864C684.095 323.858 684.282 323.663 684.282 323.423V322.806C684.282 322.566 684.095 322.371 683.864 322.371Z" fill="#E6E6E6"/>
<path d="M688.621 322.371H687.077C686.847 322.371 686.66 322.566 686.66 322.806V323.423C686.66 323.663 686.847 323.858 687.077 323.858H688.621C688.852 323.858 689.038 323.663 689.038 323.423V322.806C689.038 322.566 688.852 322.371 688.621 322.371Z" fill="#E6E6E6"/>
<path d="M693.378 322.371H691.834C691.603 322.371 691.417 322.566 691.417 322.806V323.423C691.417 323.663 691.603 323.858 691.834 323.858H693.378C693.608 323.858 693.795 323.663 693.795 323.423V322.806C693.795 322.566 693.608 322.371 693.378 322.371Z" fill="#E6E6E6"/>
<path d="M698.134 322.371H696.591C696.36 322.371 696.173 322.566 696.173 322.806V323.423C696.173 323.663 696.36 323.858 696.591 323.858H698.134C698.365 323.858 698.552 323.663 698.552 323.423V322.806C698.552 322.566 698.365 322.371 698.134 322.371Z" fill="#E6E6E6"/>
<path d="M702.891 322.371H701.347C701.116 322.371 700.93 322.566 700.93 322.806V323.423C700.93 323.663 701.116 323.858 701.347 323.858H702.891C703.121 323.858 703.308 323.663 703.308 323.423V322.806C703.308 322.566 703.121 322.371 702.891 322.371Z" fill="#E6E6E6"/>
<path d="M671.022 325.345H652.83C652.599 325.345 652.413 325.54 652.413 325.78V326.398C652.413 326.638 652.599 326.832 652.83 326.832H671.022C671.252 326.832 671.439 326.638 671.439 326.398V325.78C671.439 325.54 671.252 325.345 671.022 325.345Z" fill="#E6E6E6"/>
<path d="M723.868 205.578H602.421C602.295 205.575 602.175 205.52 602.086 205.426C601.998 205.332 601.949 205.206 601.949 205.074C601.949 204.943 601.998 204.816 602.086 204.722C602.175 204.628 602.295 204.574 602.421 204.571H723.868C723.994 204.574 724.114 204.628 724.202 204.722C724.291 204.816 724.34 204.943 724.34 205.074C724.34 205.206 724.291 205.332 724.202 205.426C724.114 205.52 723.994 205.575 723.868 205.578Z" fill="#CACACA"/>
<path d="M610.688 202.001C612.251 202.001 613.518 200.651 613.518 198.986C613.518 197.321 612.251 195.971 610.688 195.971C609.125 195.971 607.857 197.321 607.857 198.986C607.857 200.651 609.125 202.001 610.688 202.001Z" fill="#CCCCCC"/>
<path d="M620.466 202.001C622.029 202.001 623.296 200.651 623.296 198.986C623.296 197.321 622.029 195.971 620.466 195.971C618.902 195.971 617.635 197.321 617.635 198.986C617.635 200.651 618.902 202.001 620.466 202.001Z" fill="#CCCCCC"/>
<path d="M630.243 202.001C631.806 202.001 633.074 200.651 633.074 198.986C633.074 197.321 631.806 195.971 630.243 195.971C628.68 195.971 627.413 197.321 627.413 198.986C627.413 200.651 628.68 202.001 630.243 202.001Z" fill="#CCCCCC"/>
<path d="M717.981 196.718H711.035C710.897 196.721 710.766 196.78 710.67 196.882C710.574 196.985 710.52 197.123 710.52 197.266C710.52 197.41 710.574 197.547 710.67 197.65C710.766 197.752 710.897 197.811 711.035 197.814H717.981C718.118 197.811 718.249 197.752 718.346 197.65C718.442 197.547 718.496 197.41 718.496 197.266C718.496 197.123 718.442 196.985 718.346 196.882C718.249 196.78 718.118 196.721 717.981 196.718Z" fill="#CCCCCC"/>
<path d="M717.981 198.775H711.035C710.897 198.778 710.766 198.837 710.67 198.94C710.573 199.042 710.52 199.18 710.52 199.323C710.52 199.467 710.573 199.604 710.67 199.707C710.766 199.809 710.897 199.868 711.035 199.871H717.98C718.118 199.868 718.249 199.809 718.346 199.707C718.442 199.604 718.496 199.467 718.496 199.323C718.496 199.18 718.442 199.042 718.346 198.94C718.249 198.837 718.118 198.778 717.981 198.775Z" fill="#CCCCCC"/>
<path d="M717.981 200.83H711.035C710.897 200.833 710.766 200.892 710.67 200.994C710.574 201.096 710.52 201.234 710.52 201.378C710.52 201.521 710.574 201.659 710.67 201.762C710.766 201.864 710.897 201.923 711.035 201.926H717.981C718.118 201.923 718.249 201.864 718.346 201.762C718.442 201.659 718.496 201.521 718.496 201.378C718.496 201.234 718.442 201.096 718.346 200.994C718.249 200.892 718.118 200.833 717.981 200.83Z" fill="#CCCCCC"/>
<path d="M672.95 232.998H657.774C656.634 232.998 655.71 233.961 655.71 235.149C655.71 236.337 656.634 237.3 657.774 237.3H672.95C674.09 237.3 675.014 236.337 675.014 235.149C675.014 233.961 674.09 232.998 672.95 232.998Z" fill="#7FB35B"/>
<path d="M682.753 241.601H647.971C646.831 241.601 645.907 242.564 645.907 243.752C645.907 244.94 646.831 245.903 647.971 245.903H682.753C683.893 245.903 684.817 244.94 684.817 243.752C684.817 242.564 683.893 241.601 682.753 241.601Z" fill="#E6E6E6"/>
<path d="M682.753 250.204H647.971C646.831 250.204 645.907 251.167 645.907 252.355C645.907 253.543 646.831 254.506 647.971 254.506H682.753C683.893 254.506 684.817 253.543 684.817 252.355C684.817 251.167 683.893 250.204 682.753 250.204Z" fill="#E6E6E6"/>
<path d="M448.421 384.233L441.425 380.745L451.035 350.273L461.36 355.418L448.421 384.233Z" fill="#FFB6B6"/>
<path d="M495.322 379.32C494.813 379.652 494.305 379.978 493.791 380.305C492.768 380.958 491.735 381.601 490.702 382.233C490.183 382.549 489.659 382.865 489.14 383.175V383.191L489.109 383.197L489.099 383.202L488.308 383.405L487.172 380.278L486.648 378.838L485.908 376.797L484.551 373.065L477.409 353.412L488.513 350.558L488.93 352.33H488.935L489.14 353.208L493.02 369.606L493.811 372.958L493.837 373.059L494.315 375.062L494.726 376.797L495.183 378.736L495.322 379.32Z" fill="#FFB6B6"/>
<path d="M561.566 310.303C560.862 311.481 560.143 312.653 559.418 313.815C558.072 315.979 556.689 318.11 555.271 320.209C555.271 320.215 555.266 320.215 555.261 320.22C554.433 321.019 553.519 321.714 552.537 322.292C552.496 322.325 552.45 322.346 552.409 322.373C551.686 322.789 550.916 323.111 550.117 323.331C549.829 323.406 549.536 323.481 549.249 323.556C548.211 323.813 547.183 324.033 546.16 324.226C544.341 324.563 542.543 324.804 540.754 324.954C540.61 324.97 540.467 324.981 540.323 324.991C532.969 325.554 525.811 324.649 518.339 323.165C514.65 322.437 510.883 321.564 506.983 320.659C505.709 320.359 504.429 320.065 503.134 319.77C503.037 319.749 502.934 319.722 502.831 319.701C500.981 319.278 499.1 318.86 497.173 318.448C494.748 317.928 492.245 317.425 489.645 316.948L489.83 320.766C489.984 323.703 490.57 326.599 491.567 329.35C492.677 332.735 493.556 335.412 491.701 340.987L490.806 343.686C491.27 345.026 491.429 346.46 491.271 347.875C491.113 349.29 490.643 350.648 489.897 351.842L489.717 352.126L497.173 371.784L497.656 373.058H493.838L489.142 373.064H481.182L469.697 349.052L469.147 347.906V347.847L470.334 301.702C470.349 301.295 470.38 300.883 470.432 300.476C470.641 298.626 471.202 296.838 472.081 295.216C472.961 293.594 474.142 292.171 475.555 291.03C476.909 289.927 478.46 289.116 480.117 288.643C481.775 288.171 483.506 288.046 485.21 288.277L489.142 288.807L497.173 289.889L502.831 290.655L502.944 290.671L519.629 292.92L520.827 287.833L521.047 287.747L528.072 285.064L552.368 275.784L552.429 275.762L554.027 275.152L554.218 275.473C554.274 275.57 554.331 275.666 554.382 275.762C555.962 278.713 557.248 281.825 558.221 285.048C559.857 290.314 561.203 295.672 562.254 301.097C562.301 301.333 562.342 301.547 562.378 301.74L562.393 301.799C562.409 301.89 562.419 301.949 562.424 301.965C562.906 304.772 562.608 307.665 561.566 310.303Z" fill="#2F2E41"/>
<path d="M562.591 293.297C562.514 292.954 562.417 292.606 562.314 292.269C561.498 289.713 560.548 287.207 559.467 284.761C558.254 281.976 556.8 278.994 555.068 275.764C554.231 274.201 553.33 272.575 552.365 270.886C551.882 270.04 551.381 269.178 550.86 268.299C550.839 268.259 550.817 268.22 550.793 268.182L550.644 267.925L526.605 271.277L517.654 272.525L517.119 277.173L516.991 278.324C516.986 278.324 516.986 278.324 516.991 278.33L516.631 281.468V281.473L516.153 285.618L516.112 285.612L502.829 283.818L489.139 281.971L481.786 280.98C480.082 280.749 478.35 280.873 476.693 281.346C475.035 281.818 473.484 282.63 472.13 283.733C470.718 284.874 469.537 286.297 468.657 287.919C467.778 289.541 467.217 291.329 467.007 293.179C466.961 293.554 466.93 293.939 466.915 294.32L459.977 311.451C455.826 321.696 453.182 332.535 452.136 343.602L447.048 360.551L447.773 360.621L458.554 361.665L461.401 361.943L467.67 352.406C468.384 351.319 469.062 350.2 469.694 349.054C470.735 347.182 471.66 345.243 472.464 343.249L486.025 309.619C487.073 309.807 488.111 309.985 489.139 310.155C493.893 310.958 498.456 311.613 502.829 312.12C517.047 313.775 529.36 313.903 540.32 312.5C543.398 312.109 546.374 311.595 549.246 310.958C550.3 310.728 551.339 310.48 552.365 310.214C552.607 310.155 552.843 310.096 553.08 310.032C555.203 309.461 557.156 308.344 558.758 306.784C560.361 305.223 561.562 303.269 562.252 301.099C563.076 298.585 563.194 295.878 562.591 293.297Z" fill="#2F2E41"/>
<path d="M450.656 379.256L443.086 375.476L441.899 374.881L440.003 379.733L426.766 382.769C426.112 382.919 425.52 383.282 425.078 383.807C424.636 384.332 424.367 384.99 424.309 385.686C424.252 386.382 424.409 387.078 424.759 387.674C425.109 388.27 425.632 388.733 426.252 388.997L439.186 394.497L443.292 390.647L442.285 395.814L447.156 397.887L452.495 380.177L450.656 379.256Z" fill="#2F2E41"/>
<path d="M497.173 371.784L497.657 373.059H497.173V371.784Z" fill="#2F2E41"/>
<path d="M494.537 373.331L486.606 376.194L485.361 376.642L487.289 381.48L479.934 393.344C479.569 393.93 479.395 394.622 479.435 395.319C479.475 396.016 479.728 396.682 480.157 397.218C480.586 397.755 481.168 398.134 481.819 398.301C482.47 398.468 483.154 398.414 483.773 398.146L496.677 392.57L496.995 386.824L499.769 391.234L504.629 389.135L496.466 372.636L494.537 373.331Z" fill="#2F2E41"/>
<path d="M446.399 196.147C446.775 196.91 447.307 197.578 447.958 198.104C448.608 198.63 449.362 199.001 450.165 199.191C450.968 199.381 451.801 199.385 452.606 199.202C453.411 199.02 454.168 198.656 454.823 198.137L471.5 209.674L471.532 198.834L455.69 189.539C454.779 188.45 453.516 187.747 452.141 187.563C450.766 187.38 449.374 187.728 448.228 188.542C447.083 189.357 446.264 190.581 445.927 191.982C445.59 193.384 445.758 194.865 446.399 196.147Z" fill="#FFB6B6"/>
<path d="M458.858 201.157L466.64 191.932L498.322 211.533L540.321 207.525C542.397 207.327 544.49 207.607 546.45 208.347C548.41 209.086 550.19 210.266 551.664 211.803C553.137 213.34 554.268 215.196 554.975 217.24C555.683 219.283 555.95 221.464 555.758 223.627C555.407 227.534 553.583 231.136 550.686 233.643C547.79 236.15 544.057 237.357 540.308 237L493.006 232.437L458.858 201.157Z" fill="#CCCCCC"/>
<path d="M556.337 201.299L556.264 201.204C550.356 200.596 544.406 201.788 539.134 204.634C533.863 207.481 529.497 211.86 526.566 217.24L523.002 223.783C511.472 238.471 519.85 248.601 520.352 250.107L516.35 269.336L517.247 275.771L517.695 277.683L563.376 302.557C565.976 289.535 563.462 278.438 553.987 269.961L563.154 240.236C565.187 233.663 565.628 226.669 564.439 219.875C563.249 213.082 560.466 206.701 556.337 201.299Z" fill="#CCCCCC"/>
<path d="M520.015 345.711H505.363C504.557 345.71 503.778 345.407 503.17 344.856C502.561 344.305 502.164 343.544 502.051 342.712C501.146 335.774 501.146 328.74 502.051 321.802C502.163 320.981 502.552 320.228 503.149 319.678C503.745 319.129 504.51 318.819 505.306 318.804C509.917 316.651 514.882 316.651 520.066 318.804C520.549 318.811 521.024 318.927 521.459 319.146C521.894 319.365 522.278 319.68 522.583 320.069C522.902 320.475 523.13 320.949 523.251 321.457C523.372 321.966 523.382 322.496 523.282 323.01C522.105 329.114 522.105 335.401 523.282 341.505C523.382 342.019 523.372 342.549 523.251 343.057C523.13 343.566 522.902 344.04 522.583 344.445C522.272 344.842 521.881 345.161 521.436 345.38C520.992 345.599 520.507 345.712 520.015 345.711Z" fill="#7FB35B"/>
<path d="M518.481 326.776H506.148C506.046 326.777 505.945 326.757 505.851 326.717C505.757 326.677 505.671 326.618 505.599 326.543C505.526 326.469 505.469 326.38 505.43 326.282C505.391 326.184 505.371 326.079 505.371 325.973C505.371 325.867 505.391 325.762 505.43 325.664C505.469 325.566 505.526 325.477 505.599 325.402C505.671 325.328 505.757 325.269 505.851 325.229C505.945 325.189 506.046 325.169 506.148 325.17H518.481C518.583 325.169 518.684 325.189 518.778 325.229C518.872 325.269 518.958 325.328 519.03 325.402C519.103 325.477 519.16 325.566 519.199 325.664C519.238 325.762 519.259 325.867 519.259 325.973C519.259 326.079 519.238 326.184 519.199 326.282C519.16 326.38 519.103 326.469 519.03 326.543C518.958 326.618 518.872 326.677 518.778 326.717C518.684 326.757 518.583 326.777 518.481 326.776Z" fill="white"/>
<path d="M518.481 333.202H506.148C506.046 333.203 505.945 333.183 505.851 333.143C505.757 333.103 505.671 333.044 505.599 332.969C505.526 332.895 505.469 332.806 505.43 332.708C505.391 332.61 505.371 332.505 505.371 332.399C505.371 332.293 505.391 332.188 505.43 332.09C505.469 331.992 505.526 331.903 505.599 331.828C505.671 331.754 505.757 331.695 505.851 331.655C505.945 331.615 506.046 331.595 506.148 331.596H518.481C518.583 331.595 518.684 331.615 518.778 331.655C518.872 331.695 518.958 331.754 519.03 331.828C519.103 331.903 519.16 331.992 519.199 332.09C519.238 332.188 519.259 332.293 519.259 332.399C519.259 332.505 519.238 332.61 519.199 332.708C519.16 332.806 519.103 332.895 519.03 332.969C518.958 333.044 518.872 333.103 518.778 333.143C518.684 333.183 518.583 333.203 518.481 333.202Z" fill="white"/>
<path d="M518.481 339.628H506.148C506.046 339.629 505.945 339.609 505.851 339.569C505.756 339.529 505.671 339.47 505.598 339.396C505.526 339.321 505.468 339.232 505.429 339.134C505.39 339.036 505.37 338.931 505.37 338.825C505.37 338.719 505.39 338.614 505.429 338.516C505.468 338.418 505.526 338.329 505.598 338.254C505.671 338.18 505.756 338.121 505.851 338.081C505.945 338.041 506.046 338.021 506.148 338.022H518.481C518.583 338.021 518.684 338.041 518.778 338.081C518.872 338.121 518.958 338.18 519.03 338.254C519.103 338.329 519.16 338.418 519.199 338.516C519.239 338.614 519.259 338.719 519.259 338.825C519.259 338.931 519.239 339.036 519.199 339.134C519.16 339.232 519.103 339.321 519.03 339.396C518.958 339.47 518.872 339.529 518.778 339.569C518.684 339.609 518.583 339.629 518.481 339.628Z" fill="white"/>
<path d="M449.085 201.439H434.433C433.627 201.438 432.848 201.135 432.239 200.584C431.631 200.033 431.234 199.272 431.121 198.44C430.216 191.502 430.216 184.469 431.121 177.53C431.233 176.709 431.622 175.956 432.218 175.406C432.815 174.857 433.58 174.547 434.376 174.532C438.987 172.379 443.951 172.379 449.136 174.532C449.619 174.539 450.094 174.655 450.529 174.874C450.964 175.093 451.348 175.408 451.653 175.797C451.972 176.203 452.2 176.677 452.321 177.185C452.442 177.694 452.452 178.224 452.352 178.738C451.175 184.842 451.175 191.129 452.352 197.233C452.452 197.747 452.442 198.277 452.321 198.786C452.2 199.294 451.972 199.768 451.653 200.174C451.342 200.57 450.95 200.889 450.506 201.108C450.062 201.327 449.577 201.44 449.085 201.439Z" fill="#7FB35B"/>
<path d="M447.551 182.504H435.218C435.116 182.505 435.015 182.485 434.921 182.445C434.826 182.405 434.741 182.346 434.668 182.271C434.596 182.197 434.539 182.108 434.499 182.01C434.46 181.912 434.44 181.807 434.44 181.701C434.44 181.595 434.46 181.49 434.499 181.392C434.539 181.294 434.596 181.205 434.668 181.13C434.741 181.056 434.826 180.997 434.921 180.957C435.015 180.917 435.116 180.897 435.218 180.898H447.551C447.652 180.897 447.753 180.917 447.848 180.957C447.942 180.997 448.028 181.056 448.1 181.13C448.172 181.205 448.23 181.294 448.269 181.392C448.308 181.49 448.328 181.595 448.328 181.701C448.328 181.807 448.308 181.912 448.269 182.01C448.23 182.108 448.172 182.197 448.1 182.271C448.028 182.346 447.942 182.405 447.848 182.445C447.753 182.485 447.652 182.505 447.551 182.504Z" fill="white"/>
<path d="M447.551 188.93H435.218C435.116 188.931 435.015 188.911 434.921 188.871C434.826 188.831 434.741 188.772 434.668 188.697C434.596 188.623 434.539 188.534 434.499 188.436C434.46 188.338 434.44 188.233 434.44 188.127C434.44 188.021 434.46 187.916 434.499 187.818C434.539 187.72 434.596 187.631 434.668 187.556C434.741 187.482 434.826 187.423 434.921 187.383C435.015 187.343 435.116 187.323 435.218 187.324H447.551C447.652 187.323 447.753 187.343 447.848 187.383C447.942 187.423 448.028 187.482 448.1 187.556C448.172 187.631 448.23 187.72 448.269 187.818C448.308 187.916 448.328 188.021 448.328 188.127C448.328 188.233 448.308 188.338 448.269 188.436C448.23 188.534 448.172 188.623 448.1 188.697C448.028 188.772 447.942 188.831 447.848 188.871C447.753 188.911 447.652 188.931 447.551 188.93Z" fill="white"/>
<path d="M447.551 195.356H435.218C435.116 195.357 435.015 195.337 434.921 195.297C434.826 195.257 434.741 195.198 434.668 195.124C434.596 195.049 434.538 194.96 434.499 194.862C434.46 194.764 434.44 194.659 434.44 194.553C434.44 194.447 434.46 194.342 434.499 194.244C434.538 194.146 434.596 194.057 434.668 193.982C434.741 193.908 434.826 193.849 434.921 193.809C435.015 193.769 435.116 193.749 435.218 193.75H447.551C447.653 193.749 447.754 193.769 447.848 193.809C447.942 193.849 448.028 193.908 448.101 193.982C448.173 194.057 448.23 194.146 448.27 194.244C448.309 194.342 448.329 194.447 448.329 194.553C448.329 194.659 448.309 194.764 448.27 194.862C448.23 194.96 448.173 195.049 448.101 195.124C448.028 195.198 447.942 195.257 447.848 195.297C447.754 195.337 447.653 195.357 447.551 195.356Z" fill="white"/>
<path d="M191.856 240.624H177.204C176.398 240.623 175.619 240.32 175.011 239.769C174.402 239.218 174.005 238.457 173.892 237.625C172.987 230.687 172.987 223.653 173.892 216.715C174.004 215.894 174.393 215.141 174.99 214.591C175.586 214.042 176.351 213.732 177.148 213.717C181.758 211.564 186.723 211.564 191.907 213.717C192.39 213.724 192.865 213.84 193.3 214.059C193.735 214.278 194.119 214.593 194.425 214.982C194.743 215.388 194.971 215.862 195.092 216.37C195.213 216.879 195.224 217.409 195.123 217.923C193.946 224.027 193.946 230.314 195.123 236.418C195.224 236.932 195.213 237.462 195.092 237.97C194.971 238.479 194.743 238.953 194.425 239.359C194.114 239.755 193.722 240.074 193.278 240.293C192.833 240.512 192.348 240.625 191.856 240.624Z" fill="#7FB35B"/>
<path d="M190.322 221.689H177.989C177.887 221.69 177.786 221.67 177.692 221.63C177.598 221.59 177.512 221.531 177.44 221.456C177.367 221.382 177.31 221.293 177.271 221.195C177.232 221.097 177.211 220.992 177.211 220.886C177.211 220.78 177.232 220.675 177.271 220.577C177.31 220.479 177.367 220.39 177.44 220.315C177.512 220.241 177.598 220.182 177.692 220.142C177.786 220.102 177.887 220.082 177.989 220.083H190.322C190.424 220.082 190.525 220.102 190.619 220.142C190.713 220.182 190.799 220.241 190.871 220.315C190.944 220.39 191.001 220.479 191.04 220.577C191.079 220.675 191.099 220.78 191.099 220.886C191.099 220.992 191.079 221.097 191.04 221.195C191.001 221.293 190.944 221.382 190.871 221.456C190.799 221.531 190.713 221.59 190.619 221.63C190.525 221.67 190.424 221.69 190.322 221.689Z" fill="white"/>
<path d="M190.322 228.115H177.989C177.887 228.116 177.786 228.096 177.692 228.056C177.598 228.016 177.512 227.957 177.44 227.882C177.367 227.808 177.31 227.719 177.271 227.621C177.232 227.523 177.211 227.418 177.211 227.312C177.211 227.206 177.232 227.101 177.271 227.003C177.31 226.905 177.367 226.816 177.44 226.741C177.512 226.667 177.598 226.608 177.692 226.568C177.786 226.528 177.887 226.508 177.989 226.509H190.322C190.424 226.508 190.525 226.528 190.619 226.568C190.713 226.608 190.799 226.667 190.871 226.741C190.944 226.816 191.001 226.905 191.04 227.003C191.079 227.101 191.099 227.206 191.099 227.312C191.099 227.418 191.079 227.523 191.04 227.621C191.001 227.719 190.944 227.808 190.871 227.882C190.799 227.957 190.713 228.016 190.619 228.056C190.525 228.096 190.424 228.116 190.322 228.115Z" fill="white"/>
<path d="M190.322 234.541H177.989C177.887 234.542 177.786 234.522 177.692 234.482C177.597 234.442 177.512 234.383 177.439 234.309C177.367 234.234 177.309 234.145 177.27 234.047C177.231 233.949 177.211 233.844 177.211 233.738C177.211 233.632 177.231 233.527 177.27 233.429C177.309 233.331 177.367 233.242 177.439 233.167C177.512 233.093 177.597 233.034 177.692 232.994C177.786 232.954 177.887 232.934 177.989 232.935H190.322C190.424 232.934 190.525 232.954 190.619 232.994C190.713 233.034 190.799 233.093 190.872 233.167C190.944 233.242 191.001 233.331 191.041 233.429C191.08 233.527 191.1 233.632 191.1 233.738C191.1 233.844 191.08 233.949 191.041 234.047C191.001 234.145 190.944 234.234 190.872 234.309C190.799 234.383 190.713 234.442 190.619 234.482C190.525 234.522 190.424 234.542 190.322 234.541Z" fill="white"/>
<path d="M524.309 326.192C525.018 325.755 525.626 325.162 526.091 324.454C526.557 323.746 526.867 322.94 527.001 322.093C527.135 321.246 527.09 320.379 526.868 319.553C526.645 318.727 526.252 317.961 525.715 317.31L535.778 299.276L525.392 299.887L517.428 316.918C516.439 317.931 515.84 319.286 515.746 320.727C515.652 322.169 516.068 323.597 516.916 324.74C517.764 325.883 518.985 326.662 520.348 326.929C521.71 327.197 523.119 326.934 524.309 326.192Z" fill="#FFB6B6"/>
<path d="M528.369 312.933L519.071 305.386L535.967 271.264L529.636 227.811C529.323 225.663 529.468 223.47 530.06 221.387C530.652 219.304 531.676 217.382 533.061 215.758C534.446 214.135 536.157 212.848 538.072 211.991C539.988 211.134 542.061 210.726 544.144 210.798C547.908 210.931 551.466 212.615 554.04 215.479C556.613 218.344 557.991 222.155 557.871 226.077L556.307 275.554L528.369 312.933Z" fill="#CCCCCC"/>
<path d="M78.9507 303.61C79.5363 302.997 79.9858 302.257 80.2674 301.443C80.5491 300.629 80.656 299.761 80.5807 298.899C80.5054 298.037 80.2497 297.203 79.8316 296.455C79.4135 295.708 78.8432 295.065 78.1609 294.572L87.204 247.763L77.2175 251.105L69.9789 296.38C69.26 297.63 69.0059 299.111 69.2648 300.542C69.5236 301.974 70.2774 303.257 71.3832 304.148C72.4891 305.039 73.8703 305.477 75.265 305.378C76.6597 305.279 77.9711 304.65 78.9507 303.61Z" fill="#9E616A"/>
<path d="M92.3035 204.576L86.1073 199.702C86.1073 199.702 80.6414 199.298 79.6733 209.571C78.7052 219.843 76.7174 239.862 76.7174 239.862L67.2361 285.625L80.3608 288.627L90.516 239.241L96.6082 224.575L92.3035 204.576Z" fill="#CCCCCC"/>
<path d="M82.0884 279.302L117.004 278.696L119.914 253.832H82.0884V279.302Z" fill="#9E616A"/>
<path d="M113.512 432.305H121.573L125.407 399.906L113.51 399.907L113.512 432.305Z" fill="#9E616A"/>
<path d="M63.0151 433.084L71.0755 433.024L74.6921 400.598L64.209 403.104L63.0151 433.084Z" fill="#9E616A"/>
<path d="M88.2252 232.42L86.3989 237.368L86.7638 242.317L122.508 255.219L120.735 233.562L116.717 228.613L88.2252 232.42Z" fill="#FFB6B6"/>
<path d="M103.56 187.888C110.611 187.888 116.327 181.931 116.327 174.584C116.327 167.236 110.611 161.28 103.56 161.28C96.5092 161.28 90.7935 167.236 90.7935 174.584C90.7935 181.931 96.5092 187.888 103.56 187.888Z" fill="#9E616A"/>
<path d="M111.513 428.162L124.255 427.369V433.058L136.369 441.777C136.968 442.208 137.418 442.826 137.655 443.543C137.892 444.259 137.904 445.036 137.687 445.759C137.471 446.483 137.038 447.115 136.452 447.564C135.867 448.013 135.159 448.255 134.431 448.255H119.262L116.647 442.628L115.626 448.255H109.906L111.513 428.162Z" fill="#2F2E41"/>
<path d="M60.2578 428.96L72.9941 428.074L73.0323 433.763L85.2046 442.393C85.8059 442.819 86.2607 443.435 86.5026 444.149C86.7445 444.864 86.7609 445.64 86.5494 446.365C86.3379 447.09 85.9095 447.726 85.3268 448.179C84.7441 448.632 84.0377 448.88 83.3105 448.885L68.1412 448.996L65.4887 443.388L64.5056 449.022L58.7861 449.064L60.2578 428.96Z" fill="#2F2E41"/>
<path d="M60.507 408.242L66.3763 359.352L73.3595 307.805C68.2456 297.908 79.7607 267.174 79.7607 267.174L81.3861 267.255L118.176 274.488L118.168 274.451C125.693 295.839 128.186 306.405 127.773 329.181L126.291 411.055H126.756C127.528 411.055 128.268 411.375 128.813 411.943C129.359 412.512 129.665 413.283 129.665 414.087C129.665 414.891 129.359 415.663 128.813 416.231C128.268 416.8 127.528 417.119 126.756 417.119H112.208C111.825 417.12 111.446 417.042 111.093 416.89C110.739 416.738 110.418 416.515 110.147 416.233C109.876 415.952 109.662 415.617 109.515 415.249C109.368 414.881 109.293 414.486 109.293 414.087C109.293 413.689 109.368 413.294 109.515 412.926C109.662 412.558 109.876 412.223 110.147 411.941C110.418 411.66 110.739 411.436 111.093 411.284C111.446 411.132 111.825 411.054 112.208 411.055H112.583L99.2293 313.567L87.9077 354.5L75.1053 407.866C79.7607 406.653 79.0378 409.464 79.0378 411.055C79.0378 411.859 78.7313 412.631 78.1856 413.199C77.6399 413.768 76.8999 414.087 76.1282 414.087H61.58C60.9034 414.088 60.2477 413.843 59.726 413.394C59.2043 412.945 58.8493 412.32 58.7222 411.627C58.595 410.935 58.7038 410.218 59.0296 409.6C59.3554 408.982 59.8779 408.502 60.507 408.242Z" fill="#2F2E41"/>
<path d="M76.8959 268.766L78.0598 256.637C78.1807 256.143 78.4487 255.7 78.8256 255.374C79.2025 255.048 79.6688 254.854 80.1577 254.821C80.6426 249.044 82.6829 224.118 82.8048 223.031L82.8096 222.985L83.7373 202.332C83.771 201.582 84.0687 200.871 84.5735 200.335C85.0783 199.799 85.7548 199.476 86.4738 199.427L91.3741 199.093C91.4413 199.09 91.5051 199.061 91.5518 199.011C91.5986 198.96 91.6247 198.893 91.6247 198.823C91.6247 198.259 91.7313 197.7 91.9384 197.179C92.1455 196.658 92.449 196.185 92.8317 195.786C93.2143 195.387 93.6686 195.071 94.1685 194.855C94.6685 194.639 95.2044 194.528 95.7455 194.528H110.254C111.193 194.529 112.101 194.887 112.805 195.535C113.51 196.183 113.963 197.076 114.08 198.048C114.087 198.115 114.117 198.177 114.165 198.221C114.214 198.266 114.276 198.29 114.341 198.288H114.343C115.991 198.253 117.597 198.834 118.869 199.928C120.142 201.021 120.996 202.553 121.277 204.246C123.26 216.272 127.235 243.567 125.27 258.741C124.586 264.024 126.06 259.84 126.319 264.26C126.345 264.687 126.289 265.115 126.156 265.52C126.023 265.925 125.814 266.298 125.542 266.618C126.099 266.829 126.553 267.261 126.807 267.819C127.061 268.377 127.093 269.017 126.897 269.6L127.152 269.534C127.077 269.843 126.945 270.133 126.762 270.389C126.58 270.645 126.351 270.86 126.088 271.024C125.826 271.187 125.535 271.295 125.233 271.341C124.93 271.387 124.622 271.371 124.326 271.293L86.3687 276.653C85.1221 276.325 76.5817 270.065 76.8959 268.766Z" fill="#CCCCCC"/>
<path d="M178.322 219.454C178.084 220.283 177.675 221.047 177.123 221.694C176.571 222.34 175.889 222.852 175.127 223.195C174.364 223.537 173.539 223.701 172.709 223.675C171.879 223.649 171.064 223.433 170.323 223.044L155.649 236.999L153.701 226.259L167.943 214.688C168.654 213.433 169.781 212.494 171.112 212.048C172.443 211.601 173.884 211.679 175.164 212.267C176.443 212.854 177.471 213.91 178.053 215.235C178.635 216.559 178.731 218.06 178.322 219.454Z" fill="#9E616A"/>
<path d="M127.248 208.786C127.248 208.786 122.131 196.736 115.669 199.132C109.207 201.527 112.543 213.219 112.543 213.219L136.823 251.345C136.823 251.345 171.843 227.934 167.584 227.769C163.326 227.603 162.052 219.532 162.052 219.532L143.543 229.17L142.917 225.739L141.913 226.785L139.323 224.66L127.248 208.786Z" fill="#CCCCCC"/>
<path d="M545.806 195.549C555.65 195.549 563.63 187.233 563.63 176.975C563.63 166.716 555.65 158.4 545.806 158.4C535.962 158.4 527.982 166.716 527.982 176.975C527.982 187.233 535.962 195.549 545.806 195.549Z" fill="#FFB6B6"/>
<path d="M603.009 204.307C600.952 207.344 597.95 209.547 594.512 210.541C593.136 210.967 591.716 211.219 590.282 211.289C590.105 209.6 589.681 207.948 589.025 206.392C589.092 208.048 588.871 209.704 588.372 211.278C586.219 211.151 584.114 210.563 582.189 209.551C580.297 208.56 578.653 207.122 577.388 205.353C576.122 203.584 575.27 201.532 574.898 199.36C574.143 194.279 576.353 189.291 577.152 184.218C577.955 179.145 576.448 172.72 571.683 171.387C568.054 170.371 568.461 170.81 565.445 173.144C568.583 177.979 556.992 195.698 552.249 194.153C549.567 193.28 547.85 190.715 547.296 190.715C543.569 197.408 550.588 208.684 543.514 211.026L544.096 210.418C548.367 204.945 539.441 193.359 543.712 187.885C544.903 186.353 546.171 184.539 545.819 182.602C545.486 180.761 542.682 179.787 541.86 181.299C543.338 177.774 541.157 173.067 537.546 172.162C534.339 171.356 534.397 172.349 531.179 172.781C530.969 171.332 530.576 169.917 530.01 168.575C530.069 170.021 529.907 171.468 529.53 172.861C528.393 172.838 527.295 172.424 526.407 171.685C523.782 169.481 524.314 164.851 526.656 162.326C529.002 159.801 532.488 158.892 535.812 158.304C536.779 151.29 555.348 150.558 557.809 157.566C558.858 152.333 565.144 149.617 570.03 151.241C574.916 152.864 578.307 157.62 580.092 162.632C581.877 167.639 582.376 173.029 583.475 178.247C584.575 183.465 586.433 188.779 590.26 192.335C594.087 195.888 600.322 197.064 604.354 193.764C604.94 195.508 605.124 197.371 604.89 199.203C604.657 201.034 604.012 202.783 603.009 204.307Z" fill="#2F2E41"/>
<path d="M770.23 246.694L767.734 259.741C767.546 260.738 767.35 261.753 767.136 262.76C765.05 262.309 762.888 262.435 760.863 263.125C762.47 265.517 763.909 268.026 765.171 270.632C763.598 275.682 761.291 280.348 757.428 283.724C754.848 285.928 751.767 287.402 748.481 288.004C745.196 288.606 741.817 288.316 738.67 287.161L738.781 286.645C734.628 278.247 736.884 267.658 742.046 259.901C744.678 256.074 747.798 252.638 751.318 249.686C754.804 246.658 758.573 243.942 762.308 241.261C763.146 240.66 764.138 240.333 765.156 240.323C766.174 240.312 767.172 240.617 768.022 241.201C768.873 241.784 769.537 242.618 769.93 243.596C770.323 244.575 770.427 245.653 770.23 246.694Z" fill="#E4E4E4"/>
<path d="M739.559 318.554C738.508 310.58 737.428 302.506 738.165 294.447C738.819 287.29 740.914 280.3 745.18 274.568C747.444 271.532 750.199 268.93 753.322 266.88C754.136 266.346 754.885 267.69 754.075 268.222C748.672 271.78 744.494 277.034 742.142 283.226C739.544 290.111 739.127 297.618 739.578 304.932C739.849 309.356 740.423 313.749 741.001 318.139C741.048 318.338 741.02 318.548 740.923 318.726C740.826 318.903 740.667 319.036 740.48 319.096C740.289 319.15 740.086 319.123 739.914 319.021C739.742 318.919 739.615 318.751 739.562 318.553L739.559 318.554Z" fill="#F2F2F2"/>
<path d="M798.982 449.726L1.01752 450C0.748166 449.999 0.490114 449.887 0.299926 449.688C0.109737 449.49 0.00292969 449.22 0.00292969 448.94C0.00292969 448.659 0.109737 448.39 0.299926 448.191C0.490114 447.992 0.748166 447.88 1.01752 447.879L798.982 447.606C799.252 447.606 799.51 447.718 799.7 447.917C799.89 448.116 799.997 448.385 799.997 448.666C799.997 448.947 799.89 449.216 799.7 449.415C799.51 449.613 799.252 449.725 798.982 449.726Z" fill="#CACACA"/>
<path d="M88.5345 166.438C86.5766 167.417 84.3848 165.944 82.6944 164.484L83.2991 165.028C80.3115 168.057 78.9146 172.415 78.2321 176.705C77.5489 180.991 77.4727 185.374 76.6125 189.629C75.7517 193.879 73.9659 198.15 70.6303 200.754C66.1617 204.241 59.9986 204.017 54.5147 202.948C54.4417 202.932 54.3736 202.921 54.3005 202.905C55.776 198.466 56.3758 193.761 56.064 189.074C54.594 193.771 52.0916 198.045 48.7562 201.556C45.1203 200.514 41.5714 199.166 38.1442 197.527C35.9267 196.463 33.5389 195.009 32.9235 192.546C32.3065 190.102 33.7393 187.538 35.6551 185.995C37.5709 184.452 39.9223 183.647 42.1049 182.547C44.2839 181.453 46.4402 179.893 47.3127 177.537C49.325 172.119 43.5925 165.902 45.8265 160.576C46.9282 157.957 49.6267 156.532 52.1629 155.434C56.0348 153.762 60.0108 152.364 64.0636 151.251C67.6213 150.273 71.3362 149.513 74.9605 150.154C78.5848 150.795 82.1356 153.092 83.44 156.679C85.6165 157.446 87.9272 158.31 89.324 160.219C90.7202 162.123 90.6076 165.402 88.5345 166.438Z" fill="#2F2E41"/>
<path d="M105.956 160.159C100.355 155.551 95.8261 156.338 92.3323 159.2C91.745 158.52 89.2455 160.393 88.3992 160.124L85.3382 166.112C83.7631 169.009 83.1168 171.965 83.3715 173.63C80.4741 182.097 87.3449 187.815 95.4702 190.834C98.7124 192.047 102.25 192.101 105.524 190.986L105.624 189.543L106.24 190.726C106.24 190.726 113.668 206.664 115.423 207.38C114.358 204.501 111.549 190.817 110.765 187.964C109.69 184.083 110.424 177.918 111.056 174.137C111.45 171.807 111.47 169.424 111.117 167.087L111.101 166.984L112.839 170.641L116.739 168.085C115.248 163.562 115.219 158.15 105.956 160.159Z" fill="#2F2E41"/>
</g>
<defs>
<clipPath id="clip0_2_149">
<rect width="800" height="450" fill="white"/>
</clipPath>
</defs>
</svg>
